<svg width="288" height="93" viewBox="0 0 288 93" fill="none" xmlns="http://www.w3.org/2000/svg">
<path d="M51.2 92.16C43.776 92.16 36.9493 91.008 30.72 88.704C24.4907 86.3147 19.072 83.0293 14.464 78.848C9.85601 74.6667 6.27201 69.8027 3.71201 64.256C1.23734 58.624 7.62939e-06 52.5653 7.62939e-06 46.08C7.62939e-06 39.5947 1.23734 33.5787 3.71201 28.032C6.27201 22.4 9.85601 17.4933 14.464 13.312C19.072 9.13067 24.4907 5.888 30.72 3.584C36.9493 1.19466 43.776 -1.90735e-06 51.2 -1.90735e-06C58.624 -1.90735e-06 65.4507 1.19466 71.68 3.584C77.9093 5.888 83.328 9.13067 87.936 13.312C92.544 17.4933 96.128 22.4 98.688 28.032C101.248 33.5787 102.528 39.5947 102.528 46.08C102.528 52.5653 101.248 58.624 98.688 64.256C96.128 69.8027 92.544 74.6667 87.936 78.848C83.328 83.0293 77.9093 86.3147 71.68 88.704C65.4507 91.008 58.624 92.16 51.2 92.16ZM51.2 78.72C56.6613 78.72 61.6533 77.9093 66.176 76.288C70.6987 74.5813 74.624 72.2773 77.952 69.376C81.28 66.3893 83.84 62.9333 85.632 59.008C87.5093 54.9973 88.448 50.688 88.448 46.08C88.448 41.472 87.5093 37.2053 85.632 33.28C83.84 29.2693 81.28 25.8133 77.952 22.912C74.624 19.9253 70.6987 17.6213 66.176 16C61.6533 14.2933 56.6613 13.44 51.2 13.44C45.7387 13.44 40.7467 14.2933 36.224 16C31.7013 17.6213 27.776 19.8827 24.448 22.784C21.12 25.6853 18.56 29.1413 16.768 33.152C14.976 37.0773 14.08 41.3867 14.08 46.08C14.08 50.688 14.976 54.9973 16.768 59.008C18.56 63.0187 21.12 66.4747 24.448 69.376C27.776 72.2773 31.7013 74.5813 36.224 76.288C40.7467 77.9093 45.7387 78.72 51.2 78.72ZM155.612 92.16C148.7 92.16 142.257 91.0933 136.284 88.96C130.311 86.7413 125.063 83.584 120.54 79.488C116.103 75.392 112.647 70.528 110.172 64.896C107.697 59.1787 106.46 52.9067 106.46 46.08C106.46 39.5947 107.74 33.5787 110.3 28.032C112.945 22.4853 116.529 17.664 121.052 13.568C125.66 9.38666 130.951 6.18666 136.924 3.968C142.897 1.664 149.255 0.511999 155.996 0.511999C161.372 0.511999 166.535 1.23733 171.484 2.688C176.433 4.13866 180.913 6.016 184.924 8.32C189.02 10.5387 192.305 12.9707 194.78 15.616L186.204 26.752C183.303 24.192 180.231 21.9733 176.988 20.096C173.831 18.2187 170.417 16.768 166.748 15.744C163.079 14.72 159.153 14.208 154.972 14.208C150.535 14.208 146.268 14.976 142.172 16.512C138.076 17.9627 134.364 20.096 131.036 22.912C127.793 25.6427 125.233 29.0133 123.356 33.024C121.479 36.9493 120.54 41.3013 120.54 46.08C120.54 51.2853 121.479 55.936 123.356 60.032C125.319 64.0427 128.007 67.4133 131.42 70.144C134.833 72.8747 138.716 74.9653 143.068 76.416C147.505 77.8667 152.156 78.592 157.02 78.592C161.457 78.592 165.511 78.0373 169.18 76.928C172.849 75.7333 176.135 74.24 179.036 72.448C182.023 70.5707 184.711 68.6933 187.1 66.816L193.756 78.208C191.537 80.256 188.465 82.3893 184.54 84.608C180.615 86.7413 176.177 88.5333 171.228 89.984C166.279 91.4347 161.073 92.16 155.612 92.16ZM204.826 90.88V1.28H250.522C257.519 1.28 263.365 2.176 268.058 3.968C272.837 5.67467 276.421 8.192 278.81 11.52C281.199 14.848 282.394 18.944 282.394 23.808C282.394 28.5867 280.901 32.6827 277.914 36.096C274.927 39.5093 270.575 41.9413 264.858 43.392L265.498 40.832C269.338 41.6853 272.922 43.0933 276.25 45.056C279.578 47.0187 282.223 49.6213 284.186 52.864C286.149 56.1067 287.13 59.9893 287.13 64.512C287.13 69.4613 286.191 73.6427 284.314 77.056C282.522 80.384 280.005 83.072 276.762 85.12C273.519 87.168 269.85 88.6613 265.754 89.6C261.743 90.4533 257.605 90.88 253.338 90.88H204.826ZM218.65 77.568H253.466C257.391 77.568 260.805 77.0987 263.706 76.16C266.693 75.136 268.997 73.6427 270.618 71.68C272.239 69.632 273.05 67.1573 273.05 64.256C273.05 61.0987 272.069 58.5813 270.106 56.704C268.143 54.8267 265.583 53.4613 262.426 52.608C259.354 51.6693 256.154 51.2 252.826 51.2H218.65V77.568ZM218.65 37.888H252.186C255.087 37.888 257.775 37.4187 260.25 36.48C262.725 35.456 264.687 34.048 266.138 32.256C267.589 30.464 268.314 28.3733 268.314 25.984C268.314 21.9733 266.65 19.072 263.322 17.28C259.994 15.488 255.77 14.592 250.65 14.592H218.65V37.888Z" fill="white"/>
</svg>
