<svg width="800" height="800" viewBox="0 0 800 800" fill="none" xmlns="http://www.w3.org/2000/svg">
<g clip-path="url(#clip0_2_66)">
<path d="M276.992 333.259L306.973 427.147H209.123L238.533 333.259C245.323 310.634 250.975 284.052 256.634 261.992H257.766C263.419 284.052 269.644 310.069 276.992 333.259ZM584.092 353.619C541.103 353.619 523.006 392.647 520.175 420.922H641.214C641.786 395.475 630.473 353.619 584.092 353.619ZM799.219 133.855V666.147C799.219 739.338 739.336 799.22 666.145 799.22H133.855C60.6641 799.219 0.78125 739.336 0.78125 666.145V133.855C0.78125 60.6641 60.6641 0.78125 133.855 0.78125H666.147C739.336 0.78125 799.219 60.6641 799.219 133.855ZM428.013 587.784L304.147 206.564H215.344L93.1719 587.784H165.005L197.812 479.753H318.852L353.355 587.784H428.013ZM706.828 440.155C706.828 379.639 677.413 306.108 588.048 306.108C499.816 306.108 453.438 377.941 453.438 454.295C453.438 538.57 506.036 593.437 595.405 593.437C634.995 593.437 667.802 586.081 691.558 576.466L681.375 528.395C660.445 536.308 637.256 540.831 605.014 540.831C560.902 540.831 521.877 519.344 520.173 469.566H704.566C705.697 463.345 706.828 453.164 706.828 440.155Z" fill="white"/>
</g>
<defs>
<clipPath id="clip0_2_66">
<rect width="800" height="800" fill="white"/>
</clipPath>
</defs>
</svg>
