<svg width="800" height="800" viewBox="0 0 800 800" fill="none" xmlns="http://www.w3.org/2000/svg">
<path d="M800 494.362C800 472.877 793.867 452.655 783.283 435.606C776.317 424.403 767.427 414.566 757.072 406.494C767.039 392.477 773.805 375.844 776.059 357.647C776.62 353.195 776.878 348.756 776.878 344.363C776.878 317.677 766.925 292.773 750.25 273.772V273.788C738.186 260 722.444 249.256 704.405 243.094C708.211 231.517 710.236 219.453 710.252 207.289V207.217V207.202C710.236 194.391 708.011 181.522 703.416 169.242C698.833 156.947 691.883 145.242 682.575 134.844C671.603 122.55 658.417 113.2 644.184 106.967C630.125 100.805 615.03 97.6609 599.891 97.5891C599.875 97.5891 599.703 97.5891 599.445 97.5891V97.5734C599.403 97.5891 599.014 97.5594 598.311 97.6031C596.53 97.6156 594.75 97.675 592.969 97.7609C587.769 78.9453 577.758 62.0844 564.359 48.7C554.291 38.6172 542.269 30.4594 528.912 24.8C515.828 19.2563 501.423 16.1688 486.43 16.0391C486.416 16.0391 486.142 16.0391 485.669 16.0234H485.639H485.495H485.48H485.466H485.45C485.437 16.0234 485.422 16.0234 485.422 16.0234C485.22 16.0234 484.919 16.0234 484.473 16.0391C469.48 16.1813 455.103 19.2703 442.019 24.8C428.647 30.4578 416.641 38.6156 406.558 48.7H406.573C404.275 50.9969 402.092 53.4109 399.995 55.8938C397.912 53.4094 395.73 50.9969 393.431 48.7C383.363 38.6172 371.344 30.4594 357.986 24.8C344.902 19.2563 330.511 16.1688 315.502 16.0391C315.502 16.0391 315.214 16.0391 314.755 16.0234H314.725H314.583H314.553H314.539C314.539 16.0234 314.539 16.0234 314.525 16.0234C314.509 16.0234 314.509 16.0234 314.495 16.0234C314.308 16.0234 313.992 16.0234 313.561 16.0391C298.567 16.1813 284.177 19.2703 271.091 24.8C257.734 30.4578 245.714 38.6156 235.645 48.7C222.245 62.0844 212.248 78.9313 207.036 97.7609C205.083 97.6453 203.13 97.5891 201.161 97.5891V97.5734C201.161 97.5734 201.017 97.5734 200.816 97.5594C200.773 97.5734 200.428 97.5594 199.781 97.5891C184.758 97.7031 169.778 100.834 155.819 106.953C141.584 113.186 128.4 122.538 117.428 134.845C107.964 145.416 100.855 157.409 96.1422 170.019C91.4187 182.628 89.0766 195.886 89.0766 209.084C89.0766 209.084 89.0766 209.3 89.0766 209.644H89.0906C89.15 220.503 90.8281 231.317 94.0172 241.744C80.8609 247.633 69.0547 255.963 59.2469 266.175V266.145C49.5656 276.198 41.7672 288.048 36.3672 301.147C30.9672 314.245 28.0078 328.608 28.0078 343.53C28.0078 344.852 28.0375 346.188 28.0797 347.509C28.5984 362.288 32.0156 376.391 37.7453 389.159C40.1016 394.402 42.8594 399.416 45.9609 404.197C34.3125 412.672 24.3453 423.328 16.7203 435.608C6.13281 452.655 0 472.877 0 494.362C0 509.717 3.13125 524.437 8.775 537.809C14.4344 551.181 22.6062 563.188 32.6891 573.27H32.675C42.7281 583.311 54.6937 591.455 68.0062 597.111C73.5062 599.437 79.2375 601.32 85.1547 602.756C82.9578 611.561 81.8375 620.552 81.8219 629.514H81.8078V629.758V629.77V629.8C81.8078 645.141 84.9672 660.464 91.2297 674.727C97.4906 688.973 106.869 702.173 119.222 713.161C129.792 722.567 141.756 729.648 154.338 734.345C166.719 738.956 179.716 741.283 192.684 741.339C192.886 741.367 193.058 741.367 193.203 741.367C193.231 741.367 193.261 741.367 193.288 741.367H193.317C193.317 741.367 193.317 741.367 193.331 741.367H193.619V741.355C203.758 741.339 213.884 739.903 223.678 737.117C227.27 742.172 231.261 746.927 235.644 751.306V751.292C245.712 761.389 257.731 769.547 271.089 775.206C284.145 780.722 298.508 783.823 313.459 783.953C313.775 783.967 314.063 783.983 314.522 783.983H314.536C314.55 783.983 314.55 783.983 314.55 783.983C314.881 783.983 315.037 783.967 315.037 783.967C330.205 783.911 344.753 780.794 357.981 775.206C371.339 769.547 383.359 761.391 393.427 751.306C395.725 749.009 397.908 746.595 399.991 744.097C402.088 746.595 404.27 749.009 406.569 751.306C416.636 761.389 428.658 769.547 442.014 775.206C455.055 780.722 469.417 783.823 484.383 783.953C484.698 783.967 484.986 783.983 485.431 783.983C485.431 783.983 485.431 783.983 485.444 783.983C485.459 783.983 485.459 783.983 485.459 783.983C485.473 783.983 485.473 783.983 485.473 783.983C485.789 783.983 485.947 783.967 485.947 783.967C501.114 783.911 515.678 780.794 528.905 775.206C542.261 769.547 554.283 761.391 564.352 751.292V751.306C568.731 746.927 572.723 742.172 576.316 737.117C586.211 739.917 596.422 741.367 606.677 741.367C606.677 741.367 606.691 741.367 606.706 741.367C606.764 741.367 606.777 741.367 606.82 741.367C607.092 741.367 607.252 741.355 607.264 741.355C620.234 741.283 633.245 738.969 645.655 734.33C658.236 729.648 670.2 722.567 680.77 713.161C693.122 702.173 702.5 688.973 708.763 674.727C714.967 660.564 718.127 645.384 718.17 630.159H718.184C718.184 629.93 718.184 629.828 718.184 629.828V629.77C718.184 620.708 717.05 611.645 714.839 602.755C720.755 601.319 726.486 599.436 731.987 597.109C745.302 591.452 757.266 583.308 767.319 573.269H767.305C777.386 563.187 785.559 551.18 791.219 537.808C796.869 524.436 800 509.717 800 494.362ZM388.131 389.933C379.944 387.133 371.442 385.711 362.766 385.711C354.709 385.711 346.723 386.931 338.983 389.345L338.681 389.461C328.067 393.152 317.725 395.005 307.931 395.005C290.641 395.005 275.63 389.275 264.528 378.473C254.488 368.694 248.744 355.308 248.744 341.736C248.759 329.642 253.197 317.922 261.57 307.869C265.764 302.842 265.089 295.345 260.077 291.152C257.952 289.37 255.252 288.394 252.464 288.394C248.947 288.394 245.614 289.945 243.359 292.645C231.338 307.022 224.991 323.998 225.005 341.722C225.005 361.656 233.363 381.247 247.941 395.466C263.309 410.489 284.594 418.762 307.962 418.762C320.312 418.762 333.211 416.464 346.137 411.997C351.537 410.303 357.125 409.456 362.769 409.456C371.575 409.456 380.292 411.597 388.134 415.675V518.094H325.227C318.677 518.094 313.364 523.422 313.364 529.972C313.364 536.506 318.677 541.834 325.227 541.834H388.134V672.403C388.134 682.198 386.223 691.706 382.605 700.495C382.563 700.583 382.517 700.639 382.475 700.727C379.687 707.433 375.927 713.623 371.388 719.138C371.286 719.281 371.172 719.397 371.072 719.511C370.411 720.302 369.752 721.077 369.077 721.823C368.472 722.498 367.841 723.131 367.208 723.777C367.006 723.992 366.806 724.222 366.591 724.439L366.575 724.452C366.433 724.595 366.288 724.711 366.144 724.855C365.441 725.558 364.708 726.263 363.975 726.923C363.559 727.297 363.141 727.655 362.725 728.014C362.252 728.43 361.778 728.848 361.291 729.248C360.572 729.837 359.839 730.397 359.092 730.972C358.906 731.116 358.72 731.259 358.533 731.403C353.82 734.936 348.666 737.894 343.194 740.222C341.011 741.141 338.784 741.945 336.516 742.663C336.472 742.678 336.458 742.678 336.428 742.692C335.437 742.994 334.447 743.281 333.441 743.539C333.239 743.595 333.053 743.653 332.866 743.695C332.006 743.927 331.144 744.098 330.281 744.298C329.936 744.37 329.606 744.458 329.261 744.53C328.528 744.672 327.781 744.789 327.036 744.931C326.561 745.003 326.102 745.103 325.614 745.161C324.955 745.277 324.28 745.334 323.617 745.42C323.072 745.492 322.511 745.564 321.966 745.622C321.278 745.694 320.603 745.736 319.913 745.78C319.367 745.823 318.822 745.881 318.275 745.909C317.197 745.966 316.106 745.981 315.014 745.981C314.855 745.981 314.698 745.995 314.541 745.995C314.367 745.995 314.181 745.981 313.994 745.981C312.931 745.981 311.869 745.966 310.82 745.909C310.247 745.881 309.686 745.823 309.111 745.78C308.466 745.736 307.791 745.694 307.128 745.622C306.555 745.564 305.994 745.478 305.419 745.42C304.773 745.336 304.113 745.264 303.466 745.161C302.978 745.103 302.489 745.003 302.002 744.917C301.269 744.789 300.552 744.673 299.833 744.53C299.473 744.458 299.114 744.358 298.755 744.286C297.908 744.098 297.059 743.912 296.227 743.695C296.027 743.639 295.811 743.581 295.609 743.523C294.619 743.264 293.644 742.992 292.68 742.691C292.623 742.677 292.566 742.661 292.523 742.647C290.269 741.944 288.056 741.139 285.902 740.22C280.414 737.894 275.273 734.934 270.548 731.402C270.348 731.258 270.161 731.086 269.959 730.941C269.227 730.381 268.509 729.834 267.805 729.247C267.273 728.802 266.756 728.342 266.225 727.897C265.866 727.581 265.478 727.264 265.119 726.934C264.242 726.13 263.367 725.297 262.505 724.448C262.491 724.42 262.475 724.406 262.461 724.392C261.227 723.156 260.034 721.866 258.886 720.528C258.698 720.298 258.498 720.084 258.311 719.853C254.62 715.459 251.403 710.633 248.787 705.434C248.745 705.347 248.673 705.247 248.616 705.145C243.619 695.092 240.947 683.947 240.947 672.4C240.947 663.609 242.914 654.059 246.506 645.514C250.47 636.077 256.33 627.933 263.453 621.988C265.894 619.963 267.389 617.105 267.675 613.945C267.964 610.784 267 607.711 264.975 605.27C262.72 602.57 259.389 601.02 255.856 601.02C253.084 601.02 250.383 601.997 248.258 603.764C238.219 612.136 230.045 623.411 224.603 636.352C219.778 647.884 217.222 660.35 217.206 672.402C217.206 681.105 218.37 689.722 220.653 698.095C219.388 698.598 218.095 699.086 216.789 699.517C216.458 699.631 216.1 699.748 215.769 699.848C214.952 700.108 214.147 700.352 213.328 700.581C212.812 700.725 212.294 700.869 211.764 701.013C211.117 701.17 210.47 701.328 209.811 701.472C209.206 701.631 208.603 701.759 208.002 701.875C207.413 702.005 206.823 702.105 206.22 702.219C205.589 702.334 204.958 702.434 204.309 702.534C203.706 702.622 203.103 702.706 202.5 702.778C201.897 702.85 201.28 702.934 200.677 703.008C199.944 703.064 199.225 703.122 198.508 703.167C198.005 703.209 197.517 703.252 197.014 703.281C195.794 703.339 194.558 703.381 193.323 703.381C175.314 703.381 157.948 696.761 144.477 684.783C128.792 670.823 119.816 650.772 119.802 629.773C119.802 628.667 119.817 627.577 119.873 626.486C120.147 620.195 121.253 613.933 123.148 607.842C123.233 607.57 123.305 607.283 123.408 606.995C123.436 606.866 123.494 606.736 123.536 606.622C123.839 605.703 124.155 604.769 124.5 603.85C124.514 603.806 124.528 603.78 124.556 603.734C125.03 602.472 125.547 601.222 126.108 599.958C126.166 599.844 126.223 599.728 126.266 599.614C126.853 598.32 127.472 597.042 128.147 595.75C128.162 595.72 128.177 595.706 128.177 595.706C130.948 590.392 134.367 585.423 138.402 580.884C142.753 575.988 142.308 568.477 137.411 564.125C135.242 562.184 132.442 561.123 129.539 561.123C126.15 561.123 122.905 562.589 120.664 565.117C119.961 565.892 119.286 566.697 118.611 567.502C117.533 567.689 116.858 567.789 116.298 567.845C115.364 567.933 114.172 567.961 111.586 567.961C111.528 567.961 111.472 567.961 111.414 567.961C111.402 567.961 111.386 567.961 111.372 567.961C110.108 567.961 108.858 567.917 107.608 567.861C107.538 567.845 107.45 567.845 107.378 567.831C106.216 567.773 105.066 567.688 103.931 567.559C103.759 567.559 103.572 567.516 103.4 567.502C102.352 567.388 101.317 567.258 100.283 567.098C100.095 567.07 99.9234 567.041 99.7516 567.012C98.7031 566.839 97.6687 566.667 96.6484 566.453C96.5344 566.423 96.4328 566.395 96.3188 566.366C95.2125 566.136 94.1344 565.892 93.0578 565.619C93.0422 565.606 93.0281 565.606 93.0141 565.606C89.5234 564.7 86.1344 563.537 82.8453 562.144C77.3891 559.831 72.2609 556.858 67.5641 553.353C67.3625 553.211 67.1766 553.052 66.975 552.894C66.2422 552.334 65.525 551.788 64.8344 551.2C64.3187 550.783 63.8156 550.337 63.3125 549.892C62.925 549.577 62.5375 549.233 62.1641 548.902C61.2734 548.084 60.3984 547.264 59.55 546.417C58.6875 545.555 57.8547 544.664 57.0375 543.773C56.8641 543.572 56.6922 543.37 56.5047 543.17C55.9016 542.48 55.2984 541.791 54.7234 541.102C54.2359 540.498 53.7766 539.895 53.3031 539.292C53.0594 538.977 52.8 538.661 52.5703 538.344C51.9078 537.469 51.2906 536.592 50.6734 535.687C50.6297 535.616 50.5891 535.558 50.5453 535.5C47.9016 531.58 45.6188 527.4 43.7656 523.019C42.4156 519.803 41.2813 516.484 40.3906 513.066C40.3625 512.952 40.3187 512.836 40.2906 512.722C40.0469 511.773 39.8453 510.825 39.6297 509.848C39.5734 509.619 39.5141 509.375 39.4703 509.116C39.2984 508.269 39.1547 507.406 39.0109 506.544C38.9531 506.184 38.8672 505.841 38.8234 505.481C38.7078 504.677 38.6078 503.872 38.5078 503.069C38.4656 502.638 38.4078 502.236 38.3641 501.806C38.2797 500.972 38.2219 500.141 38.1766 499.306C38.1484 498.905 38.0922 498.503 38.0766 498.1C38.0203 496.88 37.9906 495.628 37.9906 494.366C37.9906 492.628 38.0469 490.891 38.1766 489.181C38.2484 488.019 38.3922 486.869 38.5359 485.719C38.5953 485.173 38.6375 484.642 38.7094 484.109C38.9094 482.602 39.1828 481.108 39.4844 479.63C39.5281 479.456 39.5422 479.284 39.5719 479.113C39.9156 477.533 40.3031 475.953 40.7484 474.416C40.7641 474.344 40.7781 474.256 40.7922 474.2C41.2359 472.663 41.7234 471.156 42.2563 469.647C42.2984 469.547 42.3141 469.459 42.3562 469.359C42.8594 467.938 43.4344 466.559 44.0219 465.18C44.1094 464.992 44.1656 464.806 44.2516 464.634C44.8266 463.312 45.4719 462.02 46.1344 460.742C46.25 460.511 46.35 460.267 46.4641 460.038C47.2547 458.545 48.1016 457.08 48.9922 455.644C49.8687 454.236 50.7891 452.856 51.7359 451.522C56.4766 444.945 62.2641 439.186 68.8563 434.473C68.9859 434.373 69.1 434.273 69.2297 434.188C69.4594 434.03 69.7031 433.886 69.9328 433.728C72.4312 432.019 75.0172 430.438 77.7172 429.045L77.7469 429.016C77.8312 428.973 77.9188 428.93 77.9906 428.9C78.8953 428.427 79.8141 427.995 80.7187 427.58C81.2219 427.35 81.7094 427.12 82.2281 426.891C82.2703 426.891 82.3125 426.847 82.3563 426.833C91.5781 422.825 101.372 420.772 111.584 420.772C128.259 420.772 143.958 426.216 157.012 436.513C160.014 439.802 169.652 449.912 184.042 460.095C194.081 467.192 204.395 472.878 214.72 476.972C227.905 482.214 241.12 484.872 254.017 484.872C260.553 484.872 265.881 479.544 265.881 472.994C265.881 466.444 260.553 461.13 254.017 461.13C244.15 461.13 233.881 459.034 223.469 454.911C208.416 448.936 195.734 439.702 187.75 433.008C183.213 429.189 179.678 425.798 177.523 423.63C176.375 422.453 175.484 421.519 174.895 420.872L174.15 420.039L173.733 419.566C173.545 419.35 173.345 419.148 173.114 418.975L172.627 418.559C155.42 404.686 133.763 397.03 111.586 397.03C104.838 397.03 98.0578 397.748 91.4078 399.17C89.9141 397.878 88.5203 396.513 87.1562 395.12C86.6531 394.631 86.1656 394.13 85.6766 393.611C85.2609 393.152 84.8594 392.692 84.4406 392.233C84.0812 391.817 83.6953 391.386 83.3344 390.955C82.5594 390.048 81.8125 389.116 81.0938 388.167C80.95 387.995 80.8344 387.823 80.7063 387.65C80.0875 386.833 79.4859 385.998 78.9125 385.152C78.7984 384.994 78.6969 384.836 78.5812 384.664C77.9937 383.789 77.4187 382.913 76.8578 381.994C76.7859 381.878 76.7141 381.764 76.6563 381.648C76.0688 380.686 75.4938 379.709 74.9625 378.719C74.9203 378.647 74.8906 378.589 74.8484 378.519C74.2875 377.456 73.7422 376.392 73.2109 375.316C73.2109 375.316 73.2109 375.286 73.1953 375.273C69.9922 368.566 67.7953 361.369 66.7313 353.93C66.7188 353.858 66.7031 353.786 66.7031 353.786C66.5437 352.666 66.4438 351.573 66.3297 350.498C66.3141 350.311 66.2875 350.125 66.2719 349.938C66.1844 348.889 66.1281 347.841 66.0703 346.778C66.0703 346.577 66.0422 346.375 66.0422 346.173V346.159C66.0125 345.283 65.9984 344.406 65.9984 343.53C65.9984 342.309 66.0281 341.103 66.0859 339.897C66.1016 339.494 66.1438 339.078 66.1734 338.677C66.2313 337.886 66.2734 337.095 66.3453 336.32C66.3891 335.833 66.475 335.373 66.5172 334.884C66.6047 334.166 66.6891 333.463 66.7891 332.758C66.8484 332.298 66.9328 331.839 67.0047 331.408C67.1344 330.677 67.2484 329.944 67.3922 329.225C67.4625 328.838 67.5641 328.45 67.65 328.077C67.8094 327.286 67.9812 326.509 68.1672 325.734C68.2391 325.448 68.325 325.175 68.3969 324.888C68.6266 324.025 68.8578 323.15 69.1156 322.288C69.1734 322.13 69.2313 321.944 69.2875 321.772C69.5891 320.808 69.8906 319.861 70.2344 318.912C70.2484 318.841 70.2922 318.77 70.3062 318.698C70.6797 317.664 71.0687 316.63 71.4984 315.609L71.5125 315.581C72.3891 313.427 73.3797 311.344 74.4563 309.291C74.4563 309.291 74.4562 309.291 74.4719 309.275C75.0031 308.256 75.5625 307.264 76.1375 306.287C76.1797 306.202 76.2234 306.13 76.2672 306.058C76.8125 305.153 77.3734 304.247 77.9469 303.358C78.0766 303.172 78.2203 302.97 78.35 302.77C78.8531 302.023 79.3547 301.277 79.8875 300.544C80.1891 300.113 80.5328 299.697 80.85 299.28C81.2234 298.792 81.5828 298.289 81.9703 297.8C82.6016 297.009 83.2484 296.234 83.9094 295.473C84.0094 295.359 84.0969 295.242 84.1828 295.142C84.9719 294.252 85.7766 293.377 86.5953 292.514C86.625 292.498 86.6391 292.472 86.6516 292.456C87.7297 291.35 88.8359 290.288 89.9703 289.253C90.2719 288.981 90.5734 288.708 90.8891 288.436C93.3016 286.309 95.8438 284.314 98.5313 282.503C98.7031 282.403 98.875 282.287 99.0469 282.173C101.905 280.278 104.906 278.583 108.037 277.089C108.067 277.075 108.095 277.059 108.109 277.059C112.95 274.763 118.091 272.981 123.448 271.787C123.492 271.773 123.533 271.759 123.578 271.745C127.944 270.783 132.439 270.194 136.992 270.036C137.825 269.992 138.644 269.992 139.62 269.992H139.634C143.427 269.992 147.233 270.28 150.952 270.855C151.569 270.942 152.172 270.998 152.775 270.998C158.678 270.998 163.591 266.761 164.509 260.93C165.5 254.467 161.047 248.392 154.584 247.386C149.644 246.627 144.631 246.238 139.633 246.238C138.814 246.238 137.981 246.253 137.162 246.281C136.631 245.377 136.144 244.442 135.669 243.523C135.138 242.534 134.634 241.542 134.161 240.536C133.989 240.163 133.817 239.803 133.658 239.416C133.169 238.339 132.695 237.275 132.264 236.184C132.134 235.855 132.005 235.509 131.891 235.18C131.459 234.059 131.058 232.939 130.684 231.789C130.569 231.458 130.469 231.1 130.369 230.77C130.025 229.636 129.694 228.514 129.406 227.38C129.291 226.964 129.205 226.575 129.105 226.159C128.861 225.081 128.602 224.005 128.4 222.914C128.284 222.369 128.212 221.836 128.112 221.305C127.953 220.328 127.797 219.366 127.667 218.389C127.567 217.598 127.495 216.808 127.423 216.003C127.352 215.27 127.266 214.538 127.222 213.792C127.122 212.255 127.064 210.705 127.064 209.139V209.109C127.064 192.147 132.908 175.803 143.567 162.719C143.683 162.561 143.811 162.417 143.939 162.273C144.528 161.556 145.131 160.838 145.764 160.133C146.152 159.702 146.555 159.3 146.941 158.884C147.444 158.339 147.947 157.792 148.464 157.275C162.223 143.43 181.037 135.559 200.686 135.544C200.716 135.544 200.772 135.544 200.814 135.544C202.08 135.559 203.328 135.588 204.592 135.659C204.994 135.688 205.397 135.717 205.784 135.744C206.745 135.816 207.723 135.903 208.686 136.003C209.044 136.045 209.403 136.089 209.777 136.133C211.041 136.289 212.32 136.477 213.583 136.692C213.597 136.705 213.625 136.705 213.655 136.705C215.005 136.948 216.355 137.238 217.705 137.567C229.281 140.325 240.081 145.87 249.186 153.827C251.714 156.698 262.658 168.864 276.834 181.433C286.384 189.877 295.477 196.814 303.864 202.042C309.136 205.317 314.017 207.873 318.77 209.856C324.4 212.197 329.572 213.605 334.583 214.15C335.028 214.208 335.459 214.236 335.905 214.236C341.966 214.236 347.02 209.697 347.695 203.666C348.041 200.52 347.15 197.419 345.169 194.947C343.186 192.463 340.356 190.911 337.197 190.567C334.539 190.28 331.323 189.359 327.875 187.923C321.928 185.467 314.819 181.23 307.308 175.673C296.134 167.414 285.62 157.489 278.77 150.611C274.88 146.703 271.719 143.342 269.766 141.217C268.703 140.055 267.87 139.134 267.309 138.517L266.692 137.8L263.13 140.959L266.52 137.614L266.219 137.269L265.817 136.853L265.456 136.538C258.205 130.061 250.089 124.731 241.286 120.697C241.889 114.161 243.353 107.872 245.552 101.941C245.623 101.753 245.695 101.581 245.767 101.395C246.069 100.591 246.384 99.8016 246.714 99.0109C246.844 98.7094 246.987 98.4078 247.117 98.1047C247.405 97.4437 247.691 96.7828 247.992 96.1516C248.18 95.75 248.38 95.3766 248.567 94.9875C248.841 94.4281 249.112 93.8813 249.4 93.3234C249.631 92.8922 249.888 92.4609 250.133 92.0156C250.392 91.5422 250.65 91.0531 250.938 90.5781C251.211 90.0891 251.512 89.6313 251.8 89.1563C252.059 88.7406 252.303 88.3094 252.577 87.8938C252.906 87.3781 253.252 86.875 253.595 86.3563C253.839 85.9969 254.083 85.6375 254.342 85.2797C254.73 84.7203 255.147 84.1594 255.562 83.5984C255.778 83.3109 255.978 83.025 256.195 82.7359C256.697 82.1047 257.2 81.4719 257.703 80.8703C257.875 80.6687 258.019 80.4672 258.177 80.2672C258.794 79.5484 259.413 78.8594 260.03 78.1547C260.117 78.0672 260.202 77.9672 260.289 77.8812C261.006 77.0906 261.739 76.3156 262.502 75.5547C263.364 74.7078 264.239 73.875 265.13 73.0562C265.389 72.8266 265.661 72.6109 265.92 72.3813C266.537 71.8219 267.169 71.275 267.816 70.7297C268.419 70.2406 269.052 69.7531 269.681 69.2797C269.97 69.05 270.272 68.8063 270.573 68.575C271.434 67.9297 272.325 67.3125 273.216 66.6938C273.288 66.65 273.345 66.5938 273.417 66.5641C277.323 63.9203 281.503 61.6391 285.898 59.7859C288.009 58.8953 290.192 58.0906 292.405 57.4016C292.505 57.3578 292.592 57.3297 292.677 57.3C293.625 57.0125 294.588 56.7406 295.536 56.4828C295.766 56.425 295.995 56.3672 296.239 56.2953C297.058 56.0797 297.891 55.9078 298.725 55.7203C299.097 55.6484 299.456 55.5484 299.831 55.4766C300.548 55.3328 301.267 55.2172 302 55.0891C302.487 55.0047 302.977 54.9016 303.464 54.8312C304.111 54.7297 304.772 54.6719 305.417 54.5875C305.992 54.5156 306.553 54.4281 307.127 54.3719C307.789 54.3141 308.477 54.2719 309.139 54.2281C309.698 54.1859 310.245 54.1281 310.819 54.1C311.897 54.0438 312.973 54.0281 314.066 54.0141C314.225 54.0141 314.381 54.0141 314.541 54.0141C314.727 54.0141 314.9 54.0141 315.086 54.0281C316.148 54.0281 317.211 54.0438 318.275 54.1C318.848 54.1281 319.423 54.1859 319.984 54.2281C320.645 54.2719 321.305 54.3156 321.953 54.3719C322.541 54.4438 323.116 54.5156 323.705 54.5875C324.338 54.6719 324.983 54.7297 325.616 54.8312C326.119 54.9016 326.62 55.0031 327.109 55.1031C327.828 55.2172 328.547 55.3328 329.25 55.4766C329.622 55.5484 329.995 55.6484 330.384 55.7359C331.203 55.9078 332.036 56.0953 332.855 56.2969C333.084 56.3687 333.314 56.4266 333.544 56.4844C334.506 56.7422 335.453 57.0156 336.387 57.3016C336.487 57.3313 336.573 57.3594 336.673 57.4031C338.886 58.0906 341.055 58.8953 343.195 59.7875C347.575 61.6531 351.755 63.9234 355.677 66.5656C355.72 66.5953 355.764 66.6219 355.82 66.6672C356.725 67.2828 357.63 67.9156 358.52 68.5906C358.808 68.7922 359.08 69.0219 359.367 69.2375C360 69.7391 360.645 70.2281 361.278 70.7453C361.897 71.2484 362.484 71.7797 363.088 72.3109C363.375 72.5703 363.662 72.7984 363.964 73.0578C364.841 73.8766 365.73 74.7094 366.577 75.5562C367.439 76.4187 368.273 77.3094 369.091 78.2C369.436 78.5734 369.766 78.9766 370.097 79.3625C370.542 79.8656 370.988 80.3687 371.405 80.8719C375.944 86.3875 379.691 92.5906 382.478 99.2828C382.52 99.3547 382.566 99.4266 382.594 99.5141C386.228 108.303 388.138 117.811 388.138 127.606V389.933H388.131ZM761.927 498.097C761.897 498.5 761.855 498.902 761.825 499.289C761.783 500.136 761.725 500.969 761.639 501.803C761.595 502.219 761.539 502.62 761.495 503.037C761.394 503.841 761.308 504.675 761.18 505.478C761.137 505.822 761.066 506.167 761.008 506.512C760.864 507.375 760.706 508.264 760.533 509.125C760.491 509.355 760.433 509.586 760.375 509.816C760.173 510.792 759.959 511.769 759.7 512.731C759.686 512.819 759.658 512.919 759.628 513.005C758.737 516.452 757.603 519.783 756.239 523.014C753.913 528.486 750.939 533.642 747.419 538.353C747.262 538.569 747.075 538.798 746.903 539.028C746.372 539.719 745.825 540.422 745.266 541.097C744.806 541.672 744.317 542.217 743.828 542.778C743.542 543.109 743.253 543.453 742.952 543.784C742.147 544.675 741.314 545.55 740.467 546.397L740.452 546.413C740.322 546.527 740.192 546.642 740.064 546.772C739.347 547.489 738.598 548.208 737.853 548.883C737.466 549.228 737.062 549.572 736.675 549.903C736.187 550.347 735.684 550.778 735.166 551.209C734.478 551.769 733.772 552.316 733.07 552.861C732.855 553.02 732.639 553.192 732.423 553.364C731.505 554.039 730.57 554.714 729.623 555.361C729.608 555.361 729.608 555.375 729.594 555.375C725.702 558.005 721.538 560.288 717.156 562.155C713.895 563.533 710.522 564.683 707.031 565.588C707.002 565.602 706.972 565.602 706.945 565.616C705.867 565.889 704.791 566.134 703.714 566.363C703.598 566.392 703.47 566.42 703.355 566.45C702.334 566.664 701.286 566.838 700.252 567.009C700.08 567.038 699.908 567.067 699.736 567.095C698.702 567.255 697.653 567.383 696.605 567.498C696.431 567.513 696.259 567.556 696.072 567.556C694.937 567.686 693.789 567.772 692.639 567.828C692.553 567.842 692.467 567.842 692.395 567.858C691.147 567.914 689.897 567.958 688.633 567.958C688.617 567.958 688.617 567.958 688.603 567.958C688.531 567.958 688.473 567.958 688.416 567.958C687.137 567.958 686.191 567.958 685.5 567.93C684.609 567.914 684.208 567.872 683.559 567.77C683 567.684 682.281 567.555 681.277 567.369C680.644 566.606 679.998 565.859 679.336 565.114C677.095 562.586 673.85 561.12 670.461 561.12C667.561 561.12 664.759 562.183 662.591 564.122C657.694 568.473 657.248 575.984 661.6 580.881C665.636 585.42 669.039 590.375 671.811 595.661C671.827 595.691 671.841 595.719 671.853 595.748C672.528 597.041 673.147 598.333 673.736 599.625C673.794 599.727 673.836 599.841 673.88 599.941C674.455 601.219 674.986 602.511 675.473 603.789C675.489 603.803 675.489 603.833 675.503 603.847C675.589 604.106 675.675 604.35 675.763 604.609C676.05 605.398 676.35 606.203 676.609 607.008V607.023C679.008 614.405 680.2 622.105 680.2 629.772C680.188 649.448 672.286 668.294 658.413 682.066C657.478 682.984 656.517 683.889 655.525 684.781C654.678 685.528 653.816 686.261 652.939 686.978C639.869 697.563 623.567 703.38 606.678 703.38C605.442 703.38 604.222 703.337 602.987 703.28C602.498 703.25 602.011 703.208 601.522 703.178C600.789 703.12 600.056 703.078 599.309 703.006C598.72 702.934 598.145 702.848 597.558 702.791C596.925 702.703 596.28 702.619 595.647 702.531C595.044 702.431 594.441 702.33 593.837 702.216C593.205 702.1 592.572 701.986 591.955 701.872C591.381 701.742 590.806 701.628 590.245 701.498C589.542 701.327 588.838 701.167 588.134 700.98C587.659 700.85 587.186 700.723 586.727 700.594C585.836 700.35 584.945 700.075 584.069 699.803C583.795 699.702 583.523 699.63 583.25 699.53C581.944 699.098 580.637 698.611 579.344 698.092C581.628 689.72 582.791 681.103 582.791 672.398C582.775 662.948 581.153 652.98 578.08 643.572C572.823 627.53 563.717 613.756 551.739 603.759C544.902 598.058 537.189 593.634 528.802 590.617C519.839 587.402 510.044 585.764 499.703 585.764C493.153 585.764 487.825 591.078 487.825 597.627C487.825 604.175 493.153 609.489 499.687 609.489C509.641 609.503 518.659 611.502 526.531 615.436C536.728 620.548 545.188 629.109 551.005 640.227C556.133 649.992 559.061 661.713 559.047 672.398C559.047 683.945 556.377 695.089 551.378 705.144C551.32 705.231 551.263 705.345 551.206 705.433C548.592 710.631 545.375 715.472 541.684 719.866C541.497 720.081 541.311 720.297 541.109 720.513C539.961 721.863 538.753 723.183 537.505 724.433C537.489 724.433 537.489 724.433 537.489 724.433V724.445C537.345 724.589 537.202 724.705 537.058 724.848C536.339 725.552 535.622 726.256 534.875 726.917C534.472 727.291 534.041 727.648 533.625 728.008C533.152 728.423 532.691 728.842 532.203 729.242C531.47 729.831 530.738 730.391 530.006 730.966C529.819 731.109 529.633 731.253 529.447 731.397C524.722 734.93 519.58 737.888 514.094 740.216C511.909 741.134 509.684 741.939 507.416 742.656C507.386 742.672 507.358 742.672 507.328 742.686C506.352 742.987 505.347 743.275 504.341 743.533C504.153 743.589 503.967 743.647 503.78 743.689C502.917 743.92 502.056 744.092 501.194 744.292C500.85 744.364 500.506 744.452 500.175 744.523C499.428 744.666 498.681 744.783 497.948 744.925C497.475 744.997 497.002 745.097 496.528 745.155C495.866 745.27 495.206 745.328 494.531 745.414C493.972 745.486 493.425 745.558 492.866 745.616C492.191 745.687 491.516 745.73 490.828 745.773C490.281 745.817 489.734 745.875 489.177 745.903C488.098 745.959 487.022 745.975 485.93 745.975C485.773 745.975 485.616 745.989 485.456 745.989C485.269 745.989 485.097 745.975 484.911 745.975C483.847 745.975 482.77 745.959 481.722 745.903C481.163 745.875 480.587 745.817 480.028 745.773C479.369 745.73 478.706 745.687 478.045 745.616C477.472 745.558 476.897 745.472 476.336 745.414C475.675 745.33 475.028 745.258 474.383 745.155C473.895 745.097 473.406 744.997 472.917 744.911C472.186 744.783 471.466 744.667 470.733 744.523C470.373 744.452 470.03 744.352 469.67 744.28C468.823 744.092 467.975 743.906 467.142 743.689C466.927 743.633 466.727 743.575 466.525 743.517C465.534 743.258 464.542 742.986 463.581 742.684C463.537 742.67 463.481 742.655 463.438 742.641C461.169 741.938 458.97 741.133 456.802 740.214C451.33 737.887 446.173 734.928 441.463 731.395C441.261 731.252 441.061 731.08 440.859 730.934C440.142 730.375 439.409 729.828 438.705 729.241C438.173 728.795 437.656 728.336 437.139 727.891C436.78 727.575 436.392 727.258 436.033 726.928C435.141 726.123 434.266 725.291 433.417 724.442C432.555 723.58 431.723 722.705 430.903 721.802C430.43 721.284 429.97 720.723 429.511 720.192C429.209 719.833 428.892 719.473 428.592 719.128C424.053 713.612 420.305 707.408 417.519 700.717C417.477 700.63 417.431 700.573 417.389 700.486C413.77 691.697 411.859 682.189 411.859 672.394V378.258C427.041 378.831 440.297 380.584 451.284 383.456C461.811 386.184 470.328 389.891 477.294 394.745C482.522 398.392 486.759 402.616 490.292 407.686C495.377 414.967 498.995 424.073 502.012 437.2C503.019 441.538 503.881 445.903 504.784 450.528C505.631 454.809 506.508 459.261 507.497 463.641C509.394 471.984 511.319 478.277 513.731 484.078C516.028 489.622 518.686 494.448 521.875 498.8C527.303 506.283 534.328 512.344 542.758 516.825C551.748 521.622 562.305 524.752 575.044 526.389C575.561 526.461 576.064 526.505 576.581 526.505C582.512 526.505 587.569 522.052 588.33 516.134C588.747 513.003 587.898 509.872 585.961 507.373C584.023 504.859 581.22 503.266 578.089 502.848C566.686 501.383 557.823 498.525 551.003 494.158C546.047 490.969 542.27 487.092 539.139 481.952C536.697 477.93 534.658 473.073 532.892 467.07C530.997 460.708 529.603 453.656 528.139 446.187C527.291 441.892 526.416 437.441 525.395 432.945C523.602 425.019 520.902 414.605 515.889 404.464C512.083 396.795 507.27 389.986 501.555 384.227C491.889 374.447 478.962 367.02 463.15 362.139C448.816 357.73 432.013 355.216 411.863 354.527V268.839H480.702C487.252 268.839 492.58 263.495 492.58 256.961C492.58 250.412 487.252 245.084 480.702 245.084H411.863V127.6C411.863 117.805 413.773 108.297 417.392 99.5078C417.434 99.4203 417.48 99.3484 417.522 99.2766C420.308 92.5828 424.056 86.3797 428.595 80.8656C428.839 80.5766 429.098 80.2906 429.342 80.0031C429.859 79.4 430.377 78.7812 430.922 78.1797C431.553 77.475 432.2 76.8141 432.859 76.1391C433.047 75.9516 433.219 75.7516 433.42 75.5484C434.269 74.6891 435.158 73.8547 436.048 73.05C436.308 72.8203 436.566 72.6047 436.825 72.375C437.456 71.8156 438.088 71.2688 438.72 70.7234C439.339 70.2344 439.956 69.7469 440.586 69.2734C440.888 69.0438 441.177 68.8 441.477 68.5687C442.353 67.9234 443.228 67.3063 444.134 66.6875C444.205 66.6438 444.262 66.5875 444.32 66.5578C448.242 63.9141 452.42 61.6328 456.802 59.7797C458.927 58.8891 461.109 58.0844 463.32 57.3953C463.422 57.3516 463.508 57.3234 463.609 57.2938C464.528 57.0063 465.491 56.7344 466.452 56.4766C466.683 56.4188 466.913 56.3609 467.142 56.2891C467.975 56.0734 468.808 55.9016 469.641 55.7141C470 55.6422 470.373 55.5422 470.731 55.4703C471.464 55.3266 472.197 55.2109 472.916 55.0828C473.405 54.9984 473.892 54.8953 474.381 54.825C475.027 54.7234 475.673 54.6656 476.334 54.5813C476.895 54.5094 477.47 54.4219 478.044 54.3656C478.705 54.3078 479.38 54.2656 480.055 54.2219C480.616 54.1797 481.161 54.1219 481.72 54.0937C482.798 54.0375 483.889 54.0219 484.981 54.0078C485.139 54.0078 485.297 54.0078 485.455 54.0078C485.627 54.0078 485.814 54.0078 486 54.0219C487.063 54.0219 488.127 54.0375 489.175 54.0937C489.748 54.1219 490.323 54.1797 490.897 54.2219C491.559 54.2656 492.219 54.3094 492.864 54.3656C493.439 54.4375 494.028 54.5094 494.617 54.5813C495.248 54.6656 495.895 54.7234 496.513 54.825C497.028 54.8953 497.517 54.9969 498.02 55.0969C498.725 55.2109 499.442 55.3266 500.145 55.4703C500.533 55.5422 500.908 55.6422 501.28 55.7297C502.098 55.9016 502.931 56.0891 503.75 56.2906C503.994 56.3625 504.223 56.4203 504.453 56.4781C505.402 56.7359 506.364 57.0094 507.297 57.2953C507.383 57.325 507.484 57.3531 507.569 57.3969C509.795 58.0844 511.978 58.8891 514.089 59.7812C518.484 61.6469 522.664 63.9172 526.584 66.5594C526.627 66.5891 526.67 66.6156 526.714 66.6609C527.633 67.2766 528.537 67.9094 529.43 68.5844C529.702 68.7859 529.989 69.0156 530.261 69.2313C530.906 69.7328 531.555 70.2219 532.172 70.7391C532.789 71.2422 533.392 71.7734 533.995 72.3047C534.283 72.5641 534.583 72.7922 534.858 73.0516C535.748 73.8703 536.623 74.7031 537.486 75.55C538.248 76.3125 538.98 77.0875 539.712 77.8766C539.727 77.8906 539.727 77.9062 539.741 77.9203C540.445 78.6797 541.134 79.4703 541.795 80.2609C541.937 80.4328 542.067 80.6047 542.197 80.7625C542.742 81.4094 543.275 82.0703 543.791 82.7313C544.006 83.0188 544.194 83.3063 544.408 83.5781C544.823 84.1391 545.242 84.6984 545.644 85.2734C545.903 85.6328 546.147 86.0062 546.391 86.3641C546.734 86.8672 547.081 87.3703 547.409 87.8859C547.683 88.3016 547.941 88.7328 548.2 89.1641C548.487 89.6234 548.775 90.0984 549.047 90.5719C549.334 91.0469 549.592 91.5344 549.866 92.0359C550.109 92.4547 550.353 92.8844 550.584 93.3156C550.872 93.875 551.144 94.45 551.431 95.0094C551.619 95.3828 551.806 95.7563 551.992 96.1438C552.294 96.7906 552.583 97.4516 552.869 98.1266C552.998 98.4125 553.142 98.7016 553.27 99.0156C553.602 99.7922 553.917 100.597 554.233 101.402C554.291 101.589 554.363 101.761 554.434 101.933C556.631 107.864 558.097 114.155 558.7 120.705C549.897 124.741 541.781 130.055 534.514 136.531C529.63 140.897 529.214 148.423 533.566 153.308C535.82 155.822 539.038 157.272 542.427 157.272C545.342 157.272 548.144 156.194 550.327 154.256C559.475 146.083 570.405 140.411 582.139 137.595C584.827 136.962 587.539 136.475 590.255 136.131C590.57 136.088 590.887 136.059 591.203 136.03C592.208 135.902 593.227 135.816 594.247 135.758C594.606 135.728 594.994 135.7 595.367 135.67C596.63 135.613 597.908 135.556 599.186 135.556C599.228 135.556 599.273 135.556 599.302 135.556C618.95 135.57 637.778 143.428 651.523 157.272C652.442 158.191 653.347 159.153 654.239 160.144C654.972 160.975 655.689 161.809 656.378 162.642C657.025 163.447 657.656 164.252 658.259 165.07C658.303 165.127 658.347 165.17 658.389 165.227C658.95 165.989 659.48 166.748 660.012 167.525C660.098 167.653 660.2 167.783 660.284 167.912C660.758 168.603 661.189 169.292 661.619 169.995C661.778 170.225 661.92 170.441 662.064 170.686C662.423 171.273 662.769 171.877 663.112 172.495C663.3 172.841 663.514 173.186 663.7 173.531C663.973 174.019 664.217 174.522 664.477 175.023C664.72 175.484 664.98 175.972 665.209 176.445C665.395 176.833 665.583 177.234 665.769 177.623C666.027 178.211 666.314 178.802 666.559 179.405C666.702 179.734 666.831 180.066 666.975 180.395C667.247 181.056 667.52 181.716 667.764 182.377C667.88 182.692 667.98 183.009 668.108 183.325C668.352 184.013 668.583 184.688 668.813 185.378C668.913 185.694 669 186.011 669.1 186.327C669.316 187.016 669.531 187.705 669.717 188.409C669.819 188.783 669.905 189.156 670.005 189.528C670.178 190.161 670.336 190.794 670.48 191.439C670.595 191.956 670.709 192.488 670.809 193.019C670.911 193.509 671.011 193.997 671.111 194.498C671.241 195.261 671.355 196.036 671.47 196.813C671.512 197.056 671.556 197.328 671.598 197.588C672.03 200.761 672.245 203.992 672.245 207.283C672.245 208.791 672.187 210.298 672.087 211.822C672.073 212.152 672.044 212.481 672.028 212.827C671.914 214.264 671.77 215.714 671.569 217.166C671.527 217.495 671.469 217.825 671.425 218.155C671.253 219.362 671.052 220.553 670.808 221.747C670.737 222.134 670.666 222.522 670.594 222.909C670.292 224.245 669.961 225.58 669.617 226.916C669.487 227.419 669.344 227.922 669.202 228.425C668.856 229.603 668.497 230.766 668.095 231.93C667.936 232.417 667.75 232.906 667.592 233.395C667.189 234.514 666.758 235.608 666.314 236.698C666.127 237.158 665.941 237.617 665.739 238.061C665.18 239.369 664.577 240.691 663.944 241.983C663.772 242.327 663.584 242.67 663.398 243.03C662.767 244.28 662.078 245.544 661.373 246.778C659.592 249.852 657.639 252.839 655.458 255.711C655.17 256.042 654.897 256.402 654.653 256.759C652.456 259.561 650.156 262.189 647.817 264.544C643.536 268.867 637.491 273.292 630.353 277.355C619.667 283.43 608.034 287.911 600.147 290.583C595.653 292.12 591.889 293.241 589.534 293.916C588.256 294.259 587.25 294.548 586.561 294.72L585.642 294.95C579.28 296.502 575.359 302.936 576.895 309.284C578.189 314.642 582.928 318.361 588.428 318.361C589.375 318.361 590.323 318.247 591.244 318.03C592.492 317.728 603.911 314.87 618.302 309.211C627.034 305.766 635.034 301.987 642.072 297.994C651.336 292.737 658.719 287.252 664.678 281.248C666.561 279.366 668.398 277.355 670.18 275.273C671.989 275.303 673.812 275.417 675.637 275.562C675.708 275.591 675.794 275.605 675.881 275.605C676.828 275.689 677.489 275.747 677.877 275.777C677.906 275.792 677.934 275.792 677.948 275.792C678.064 275.792 678.164 275.82 678.208 275.82H678.222H678.236C678.623 275.878 679.013 275.936 679.398 275.994C680.059 276.094 680.734 276.166 681.395 276.281C693.747 278.406 705.237 283.822 714.702 291.922C714.802 292.006 714.889 292.094 714.989 292.178C715.58 292.681 716.152 293.212 716.727 293.744C716.928 293.931 717.142 294.117 717.359 294.305C717.791 294.72 718.222 295.167 718.653 295.611C718.969 295.913 719.284 296.216 719.586 296.545C719.83 296.789 720.045 297.048 720.275 297.292C720.748 297.795 721.223 298.298 721.683 298.814V298.828C722.903 300.206 724.055 301.644 725.158 303.122C725.273 303.294 725.403 303.452 725.545 303.625C725.948 304.184 726.334 304.773 726.737 305.334C726.925 305.606 727.125 305.895 727.311 306.181C727.642 306.684 727.958 307.186 728.288 307.703C728.519 308.077 728.747 308.436 728.977 308.794C729.25 309.255 729.494 309.713 729.767 310.159C730.011 310.605 730.284 311.05 730.53 311.495C730.745 311.898 730.931 312.3 731.147 312.702C731.406 313.22 731.692 313.738 731.952 314.267C732.109 314.598 732.253 314.942 732.411 315.286C732.698 315.889 732.986 316.494 733.245 317.097C733.359 317.369 733.459 317.642 733.589 317.914C733.861 318.605 734.15 319.294 734.422 319.997C734.494 320.198 734.566 320.428 734.653 320.63C734.925 321.392 735.198 322.152 735.456 322.928C735.516 323.086 735.558 323.244 735.6 323.416C735.873 324.234 736.131 325.067 736.363 325.9C736.391 326.03 736.42 326.144 736.447 326.273C736.691 327.15 736.922 328.013 737.122 328.902C737.152 329.017 737.166 329.131 737.194 329.245C737.395 330.136 737.581 331.041 737.753 331.933C737.781 332.091 737.795 332.234 737.825 332.377C737.969 333.239 738.127 334.114 738.241 334.992C738.27 335.222 738.284 335.452 738.328 335.667C738.428 336.472 738.516 337.275 738.6 338.08C738.63 338.467 738.656 338.856 738.672 339.242C738.73 339.905 738.786 340.55 738.816 341.195C738.859 342.244 738.886 343.292 738.886 344.356C738.886 345.778 738.83 347.214 738.744 348.65C738.656 350.072 738.527 351.522 738.355 352.958C738.339 353.017 738.327 353.059 738.327 353.117C738.197 354.208 738.023 355.3 737.839 356.363C737.809 356.534 737.767 356.694 737.738 356.85C737.566 357.856 737.364 358.847 737.134 359.838C737.134 359.881 737.119 359.923 737.105 359.952C734.247 372.333 728.014 383.708 719.152 392.77C719.067 392.856 718.994 392.928 718.908 393.014C718.233 393.705 717.53 394.392 716.813 395.055C716.639 395.213 716.467 395.369 716.28 395.542C714.658 397.008 712.977 398.428 711.211 399.764C703.7 397.939 696.045 397.02 688.389 397.02C666.228 397.02 644.57 404.677 627.364 418.55C622.28 422.658 621.475 430.155 625.583 435.239C627.852 438.055 631.214 439.662 634.831 439.662C637.531 439.662 640.175 438.728 642.286 437.033C655.47 426.391 671.427 420.761 688.403 420.761C694.02 420.761 699.592 421.392 705.006 422.656C707.075 424.266 709.689 425.184 712.347 425.184C712.677 425.184 713.008 425.169 713.352 425.142C716.425 426.247 719.341 427.511 722.041 428.905C722.098 428.934 722.156 428.962 722.2 428.992L722.242 429.005V429.019L722.272 429.034C724.972 430.427 727.556 432.006 730.056 433.717C730.286 433.875 730.53 434.019 730.759 434.177C730.889 434.263 731.003 434.378 731.133 434.462C739.061 440.137 745.841 447.331 750.997 455.634C751.886 457.072 752.72 458.536 753.509 460.028C753.667 460.316 753.797 460.619 753.941 460.919C754.572 462.139 755.175 463.359 755.736 464.595C755.82 464.809 755.908 465.039 755.994 465.241C756.569 466.606 757.13 467.956 757.631 469.348C757.673 469.464 757.703 469.592 757.747 469.708C758.278 471.188 758.766 472.667 759.197 474.189C759.211 474.277 759.227 474.361 759.255 474.448C759.686 475.986 760.073 477.537 760.417 479.102C760.447 479.289 760.475 479.461 760.505 479.647C760.806 481.112 761.078 482.606 761.28 484.098C761.352 484.631 761.395 485.161 761.452 485.708C761.595 486.856 761.739 488.006 761.811 489.17C761.941 490.88 761.998 492.617 761.998 494.355C762.012 495.625 761.984 496.877 761.927 498.097Z" fill="white"/>
</svg>
