<svg width="1159" height="747" viewBox="0 0 1159 747" fill="none" xmlns="http://www.w3.org/2000/svg">
<path d="M1155.6 415.977C1148.8 378.072 1132.23 342.125 1106.33 309.147C1083.74 280.366 1054.76 254.768 1020.16 233.012L1020.25 232.944L656.916 11.8798C656.655 11.6971 656.381 11.525 656.098 11.3641C644.018 4.03359 627.663 0 610.062 0C592.439 0 575.444 4.04257 562.233 11.3875C548.028 19.248 539.908 29.6778 539.341 40.7796C538.821 51.1376 545.059 61.1039 556.95 68.8728C580.334 83.4889 603.666 98.423 627.03 113.375C649.704 127.892 673.068 142.843 696.318 157.398L251.288 157.159C200.394 157.159 165.74 176.091 158.612 207.786C155.479 221.669 161.007 236.934 173.363 248.625C186.473 261.019 205.507 267.855 226.956 267.855L260.882 267.873C307.75 267.873 354.824 267.781 401.835 267.692L446.666 267.609L42.7642 504.32L41.1606 505.249C18.5999 518.947 3.83009 538.152 0.643416 557.935C-1.7721 572.923 2.64161 586.62 13.4128 597.558C26.2502 610.598 46.2933 617.771 69.8543 617.771C93.0002 617.771 116.618 610.823 136.387 598.172L354.5 456.772C353.568 463.677 352.436 473.807 352.565 481.159C352.81 492.8 357.528 516.157 364.997 535.119C380.429 574.09 406.424 609.745 442.255 641.058C479.538 673.635 524.945 699.467 577.207 717.816C632.457 737.174 691.852 747 753.746 747H754.32C816.411 746.881 875.994 736.899 931.424 717.32C983.771 698.753 1029.16 672.818 1066.3 640.246C1102.09 608.773 1128.04 573.058 1143.45 534.12C1151.07 514.845 1155.95 494.957 1158 474.824C1159.9 455.366 1159.08 435.566 1155.6 415.977ZM758.271 602.759C621.865 602.759 511.25 524.375 511.25 427.677C511.25 330.989 621.868 252.605 758.271 252.605C894.678 252.605 1005.28 330.989 1005.28 427.677C1005.29 524.375 894.678 602.759 758.271 602.759ZM900.723 412.292C902.735 441.152 888.183 467.95 862.628 487.787C836.633 507.996 799.541 520.69 758.062 520.69C716.601 520.69 679.502 507.996 653.498 487.787C627.955 467.95 613.432 441.156 615.433 412.315C617.393 384.281 634.655 359.535 660.657 342.014C686.225 324.785 720.557 314.275 758.06 314.275C795.567 314.275 829.89 324.789 855.461 342.014C881.476 359.535 898.743 384.263 900.723 412.292Z" fill="white"/>
</svg>
