<svg width="627" height="705" viewBox="0 0 627 705" fill="none" xmlns="http://www.w3.org/2000/svg">
<path d="M624.213 208.699C624.209 196.962 621.697 186.59 616.617 177.691C611.627 168.935 604.155 161.598 594.131 155.798C511.394 108.121 428.576 60.5901 345.866 12.8648C323.567 -0.00027252 301.947 0.471174 279.814 13.521C246.882 32.928 82.0031 127.331 32.8713 155.771C12.6374 167.479 2.7916 185.394 2.78674 208.677C2.75513 304.558 2.78674 400.439 2.75513 496.32C2.75513 507.8 5.16491 517.972 10.0209 526.738C15.0132 535.756 22.5902 543.294 32.8446 549.226C81.9788 577.666 246.88 672.062 279.804 691.476C301.947 704.533 323.567 705 345.873 692.132C428.586 644.404 511.408 596.874 594.158 549.197C604.412 543.267 611.989 535.724 616.982 526.713C621.83 517.945 624.245 507.775 624.245 496.293C624.245 496.293 624.245 304.582 624.213 208.699Z" fill="white"/>
<path d="M314.451 351.564L10.021 526.738C15.0132 535.756 22.5903 543.294 32.8446 549.226C81.9788 577.666 246.88 672.062 279.805 691.476C301.947 704.533 323.567 705 345.873 692.133C428.586 644.405 511.408 596.874 594.158 549.197C604.412 543.268 611.989 535.725 616.982 526.714L314.451 351.564Z" fill="white"/>
<path d="M624.213 208.699C624.208 196.962 621.697 186.59 616.617 177.691L314.451 351.567L616.982 526.714C621.83 517.946 624.24 507.775 624.245 496.293C624.245 496.293 624.245 304.583 624.213 208.699Z" fill="white"/>
<path d="M493.689 286.08V318.823H526.453V286.08H542.835V318.823H575.599V335.195H542.835V367.936H575.599V384.308H542.835V417.052H526.453V384.308H493.689V417.052H477.307V384.308H444.545V367.936H477.307V335.195H444.545V318.823H477.307V286.08H493.689ZM526.453 335.193H493.689V367.936H526.453V335.193Z" fill="black"/>
<path d="M315.12 121.638C400.578 121.638 475.189 168.019 515.153 236.962L514.764 236.298L414.215 294.155C394.406 260.636 358.092 238.014 316.43 237.548L315.117 237.54C251.59 237.54 200.087 289.01 200.087 352.498C200.066 372.508 205.297 392.174 215.258 409.533C235.086 444.126 272.361 467.457 315.12 467.457C358.143 467.457 395.629 443.829 415.355 408.867L414.876 409.705L515.272 467.829C475.746 536.189 402.156 582.427 317.692 583.348L315.12 583.362C229.391 583.362 154.569 536.694 114.704 467.387C95.2435 433.552 84.1089 394.327 84.1089 352.498C84.1089 224.998 187.532 121.635 315.117 121.635L315.12 121.638Z" fill="black"/>
</svg>
