<svg width="372" height="419" viewBox="0 0 372 419" fill="none" xmlns="http://www.w3.org/2000/svg">
<g clip-path="url(#clip0_2_9)">
<path d="M371.374 123.243C371.371 116.217 369.87 110.008 366.834 104.68C363.852 99.44 359.387 95.0482 353.397 91.5758C303.954 63.0357 254.464 34.5829 205.037 6.01376C191.712 -1.68751 178.792 -1.40674 165.566 6.40508C145.886 18.0239 47.3573 74.5352 17.997 91.5598C5.9055 98.5671 0.0217969 109.291 0.0188906 123.23C0 180.626 0.0188906 238.021 0 295.418C0.00290625 302.29 1.44005 308.378 4.34194 313.626C7.3252 319.025 11.8531 323.537 17.981 327.088C47.3428 344.113 145.885 400.62 165.56 412.242C178.792 420.058 191.712 420.337 205.042 412.633C254.47 384.062 303.963 355.611 353.413 327.071C359.541 323.521 364.069 319.006 367.052 313.612C369.95 308.363 371.39 302.275 371.393 295.402C371.393 295.402 371.393 180.641 371.374 123.243Z" fill="white"/>
<path d="M186.264 208.765L4.34192 313.626C7.32518 319.025 11.8531 323.537 17.9809 327.088C47.3428 344.113 145.885 400.62 165.56 412.242C178.792 420.058 191.712 420.337 205.042 412.633C254.47 384.062 303.963 355.611 353.413 327.071C359.541 323.521 364.069 319.006 367.052 313.612L186.264 208.765Z" fill="white"/>
<path d="M132.381 239.826C142.967 258.327 162.868 270.805 185.696 270.805C208.666 270.805 228.68 258.168 239.212 239.469L186.264 208.765L132.381 239.826Z" fill="white"/>
<path d="M371.374 123.244C371.371 116.217 369.87 110.009 366.834 104.68L186.264 208.765L367.052 313.612C369.95 308.363 371.39 302.275 371.393 295.402C371.393 295.402 371.393 180.641 371.374 123.244Z" fill="white" fill-opacity="0.933333"/>
<path d="M361.433 216.259H347.306V230.405H333.175V216.259H319.05V202.118H333.175V187.975H347.306V202.118H361.433V216.259ZM309.883 216.259H295.757V230.405H281.63V216.259H267.503V202.118H281.63V187.975H295.757V202.118H309.883V216.259Z" fill="black"/>
<path d="M239.212 239.469C228.68 258.168 208.666 270.805 185.696 270.805C162.868 270.805 142.967 258.327 132.381 239.826C127.063 230.542 124.27 220.025 124.281 209.323C124.281 175.369 151.779 147.843 185.696 147.843C208.378 147.843 228.174 160.166 238.812 178.478L292.492 147.533C271.156 110.662 231.322 85.8558 185.696 85.8558C117.58 85.8558 62.3623 141.135 62.3623 209.323C62.3623 231.694 68.307 252.672 78.6969 270.768C99.9794 307.834 139.927 332.792 185.696 332.792C231.55 332.792 271.56 307.733 292.812 270.558L239.212 239.469Z" fill="black"/>
</g>
<defs>
<clipPath id="clip0_2_9">
<rect width="372" height="419" fill="white"/>
</clipPath>
</defs>
</svg>
