<svg width="315" height="315" viewBox="0 0 315 315" fill="none" xmlns="http://www.w3.org/2000/svg">
<path d="M163.436 20.719C164.021 20.8774 164.602 20.9116 165.145 20.9202C165.731 20.9294 166.24 20.9122 166.758 20.9622H166.763C172.034 21.4208 177.265 22.0698 182.46 23.0432L183.498 23.2424C200.931 26.6788 217.095 33.2024 232.039 42.8401H232.04C243.65 50.3077 253.89 59.3185 262.833 69.803H262.834C270.025 78.2187 276.124 87.3701 281.105 97.2532V97.2542C286.814 108.569 290.94 120.402 293.364 132.826L293.594 134.031C294.777 140.418 295.683 146.85 295.818 153.335L295.835 154.633C295.835 154.898 295.866 155.162 295.896 155.402C295.928 155.648 295.959 155.859 295.976 156.066V164.285C295.837 164.854 295.832 165.467 295.801 165.964L295.8 165.98V165.995C295.8 167.334 295.8 168.656 295.697 169.968L295.696 169.97C295.061 178.46 293.732 186.839 291.626 195.114C287.593 210.648 281.102 225.057 272.089 238.343V238.344C265.388 248.234 257.569 257.14 248.589 265.027C239.646 272.882 229.858 279.509 219.23 284.87C206.987 291.04 194.117 295.321 180.614 297.666H180.613C175.426 298.577 170.199 299.172 164.938 299.489H164.925L164.911 299.49C164.231 299.569 163.539 299.6 162.799 299.652C162.087 299.701 161.347 299.769 160.607 299.923H152.432C152.004 299.783 151.588 299.748 151.2 299.747C146.781 299.538 142.398 299.182 138.056 298.592L138.053 298.591C129.919 297.539 121.922 295.75 114.137 293.263C100.774 288.987 88.3227 282.851 76.7832 274.854C66.0839 267.419 56.6193 258.654 48.376 248.558H48.375C38.6562 236.705 31.0839 223.626 25.7158 209.254V209.252L25.2705 208.055C20.7349 195.673 18.0108 182.869 17.1572 169.666C17.1572 168.891 17.014 168.126 16.7715 167.372V153.073C17.016 152.401 17.121 151.713 17.1562 151.043C17.3305 147.787 17.6782 144.526 18.1045 141.299C20.2105 125.733 24.8372 110.97 31.958 96.9797C36.8679 87.3359 42.8311 78.3632 49.8428 70.0833C56.7884 61.8797 64.5751 54.5486 73.2002 48.134L73.1992 48.1331C87.2646 37.6821 102.732 30.1456 119.636 25.5198C127.841 23.2787 136.226 21.8064 144.71 21.1028L144.715 21.1018C145.454 21.0333 146.192 21.0349 146.994 21.0032C147.757 20.973 148.551 20.9118 149.337 20.719H163.436Z" stroke="white"/>
<path d="M119.933 102.189C119.835 104.763 120.293 107.578 121.051 110.392C122.496 115.748 124.891 120.655 127.715 125.291C134.148 135.832 142.256 144.857 151.054 153.236C151.774 153.924 152.632 154.506 153.551 154.949C154.47 155.428 155.389 155.428 156.339 155.018C157.258 154.608 158.079 154.024 158.769 153.266C161.823 150.109 164.84 146.948 167.73 143.686C171.8 139.05 175.676 134.282 179.188 129.166C182.375 124.531 185.228 119.655 187.327 114.369C189.426 109.114 190.446 103.694 189.757 97.9956C188.608 88.5921 184.769 80.6246 177.907 74.3771C169.793 67.0021 160.342 64.0492 149.706 65.6941C132.407 68.375 119.867 84.305 119.933 102.189Z" fill="white"/>
<path d="M209.459 230.362C207.282 230.428 204.837 230.159 202.393 229.64C195.162 228.057 189.02 224.769 184.3 218.94C181.43 215.385 179.016 211.533 176.936 207.482C174.491 202.708 172.448 197.735 170.666 192.7C168.488 186.61 166.64 180.387 165.216 174.097C164.426 170.574 165.314 168.366 169.212 167.152C174.162 165.605 179.15 164.222 184.234 163.101C192.651 161.256 201.135 160.073 209.788 160.365C212.233 160.463 214.673 160.725 217.086 161.153C224.086 162.373 230.027 165.6 234.88 170.701C243.169 179.394 246.466 189.765 244.422 201.587C241.484 218.479 226.494 230.495 209.459 230.362Z" fill="white"/>
<path d="M100.432 230.362C102.609 230.428 105.054 230.159 107.498 229.64C114.729 228.057 120.871 224.769 125.591 218.94C128.461 215.385 130.874 211.533 132.955 207.482C135.4 202.708 137.443 197.735 139.225 192.7C141.402 186.61 143.251 180.387 144.674 174.097C145.465 170.574 144.576 168.366 140.679 167.152C135.728 165.605 130.741 164.222 125.657 163.101C117.24 161.256 108.756 160.073 100.102 160.365C97.6576 160.463 95.2181 160.725 92.8049 161.153C85.805 162.373 79.8636 165.6 75.0109 170.701C66.722 179.394 63.425 189.765 65.469 201.587C68.4066 218.479 83.3971 230.495 100.432 230.362Z" fill="white"/>
</svg>
