<svg width="800" height="800" viewBox="0 0 800 800" fill="none" xmlns="http://www.w3.org/2000/svg">
<g clip-path="url(#clip0_4_8)">
<path d="M400 800C620.914 800 800 620.914 800 400C800 179.086 620.914 0 400 0C179.086 0 0 179.086 0 400C0 620.914 179.086 800 400 800Z" fill="white"/>
<path d="M646.328 360.547C645.078 359.531 633.75 351.016 609.844 351.016C603.516 351.016 597.188 351.484 590.938 352.656C586.328 320.859 560.078 305.391 558.906 304.688L552.5 300.938L548.281 307.031C542.969 315.234 539.141 324.219 536.875 333.75C532.578 351.875 535.156 368.906 544.375 383.437C533.281 389.609 515.391 391.172 511.797 391.25H216.406C208.672 391.25 202.422 397.5 202.422 405.234C202.109 431.094 206.484 456.797 215.313 481.094C225.469 507.812 240.625 527.422 260.313 539.453C282.344 552.969 318.203 560.703 358.906 560.703C377.266 560.781 395.625 559.062 413.672 555.703C438.75 551.094 462.891 542.344 485.078 529.766C503.359 519.141 519.844 505.703 533.828 489.844C557.188 463.359 571.172 433.828 581.563 407.656H585.703C611.328 407.656 627.109 397.422 635.781 388.828C641.562 383.359 646.094 376.719 648.984 369.297L650.781 363.906L646.328 360.547ZM243.75 382.734H283.359C285.234 382.734 286.797 381.172 286.797 379.297V344.062C286.797 342.187 285.234 340.625 283.359 340.547H243.75C241.875 340.547 240.313 342.109 240.313 343.984V379.297C240.313 381.25 241.875 382.734 243.75 382.734ZM298.359 382.734H337.969C339.844 382.734 341.406 381.172 341.406 379.297V344.062C341.406 342.187 339.844 340.625 337.969 340.547H298.359C296.406 340.547 294.844 342.109 294.844 344.062V379.297C294.844 381.25 296.406 382.734 298.359 382.734ZM353.672 382.812H393.281C395.156 382.812 396.719 381.25 396.719 379.375V344.141C396.719 342.266 395.156 340.703 393.281 340.625H353.672C351.797 340.625 350.234 342.187 350.234 344.062V379.375C350.234 381.25 351.797 382.734 353.672 382.812ZM408.438 382.812H448.047C449.922 382.812 451.484 381.25 451.563 379.375V344.141C451.563 342.188 450 340.625 448.047 340.625H408.438C406.563 340.625 405 342.187 405 344.062V379.375C405 381.25 406.484 382.812 408.438 382.812ZM298.281 332.031H337.891C339.766 332.031 341.328 330.469 341.328 328.516V293.281C341.328 291.406 339.766 289.844 337.891 289.844H298.281C296.328 289.844 294.844 291.406 294.766 293.281V328.516C294.844 330.469 296.406 332.031 298.281 332.031ZM353.672 332.031H393.281C395.156 332.031 396.719 330.469 396.719 328.516V293.281C396.719 291.406 395.156 289.844 393.281 289.844H353.672C351.797 289.844 350.234 291.406 350.234 293.281V328.516C350.234 330.469 351.797 332.031 353.672 332.031ZM408.438 332.031H448.047C450 332.031 451.484 330.469 451.563 328.516V293.281C451.563 291.328 450 289.844 448.047 289.844H408.438C406.563 289.844 405 291.406 405 293.281V328.516C405 330.469 406.484 332.031 408.438 332.031ZM408.438 281.328H448.047C450 281.328 451.563 279.766 451.563 277.813V242.5C451.563 240.625 450 239.062 448.047 239.062H408.438C406.563 239.062 405 240.625 405 242.5V277.813C405 279.766 406.484 281.328 408.438 281.328ZM463.594 382.812H503.203C505.078 382.812 506.641 381.25 506.641 379.375V344.141C506.641 342.188 505.078 340.703 503.203 340.625H463.594C461.719 340.625 460.156 342.187 460.156 344.062V379.375C460.156 381.25 461.719 382.812 463.594 382.812Z" fill="black"/>
</g>
<defs>
<clipPath id="clip0_4_8">
<rect width="800" height="800" fill="white"/>
</clipPath>
</defs>
</svg>
