<svg width="800" height="800" viewBox="0 0 800 800" fill="none" xmlns="http://www.w3.org/2000/svg">
<g clip-path="url(#clip0_4_11)">
<path d="M784.912 364.355L435.625 15.0867C415.522 -5.02891 382.897 -5.02891 362.769 15.0867L290.237 87.618L382.247 179.627C403.628 172.402 428.147 177.249 445.191 194.293C462.316 211.446 467.128 236.174 459.728 257.624L548.4 346.299C569.853 338.909 594.606 343.69 611.741 360.852C635.688 384.79 635.688 423.587 611.741 447.54C587.788 471.496 548.991 471.496 525.025 447.54C507.012 429.509 502.563 403.055 511.681 380.865L428.988 298.171L428.978 515.787C434.973 518.751 440.448 522.666 445.191 527.38C469.137 551.318 469.137 590.118 445.191 614.09C421.237 638.034 382.422 638.034 358.503 614.09C334.556 590.118 334.556 551.321 358.503 527.384C364.242 521.642 371.062 517.095 378.569 514.005V294.362C371.051 291.293 364.227 286.743 358.503 280.984C340.359 262.865 335.997 236.243 345.294 213.965L254.594 123.255L15.0937 362.74C-5.03125 382.874 -5.03125 415.502 15.0937 435.621L364.387 784.896C384.497 805.015 417.116 805.015 437.25 784.896L784.909 437.243C805.028 417.118 805.031 384.471 784.912 364.355Z" fill="white"/>
</g>
<defs>
<clipPath id="clip0_4_11">
<rect width="800" height="800" fill="white"/>
</clipPath>
</defs>
</svg>
