<svg width="206" height="77" viewBox="0 0 206 77" fill="none" xmlns="http://www.w3.org/2000/svg">
<path d="M15.5 23.2312C15.1 23.2312 15 23.0312 15.2 22.7312L17.3 20.0312C17.5 19.7312 18 19.5312 18.4 19.5312H54.1C54.5 19.5312 54.6 19.8312 54.4 20.1312L52.7 22.7312C52.5 23.0312 52 23.3312 51.7 23.3312L15.5 23.2312Z" fill="white"/>
<path d="M0.400001 32.4344C8.34465e-07 32.4344 -0.1 32.2344 0.0999997 31.9344L2.2 29.2344C2.4 28.9344 2.9 28.7344 3.3 28.7344H48.9C49.3 28.7344 49.5 29.0344 49.4 29.3344L48.6 31.7344C48.5 32.1344 48.1 32.3344 47.7 32.3344L0.400001 32.4344Z" fill="white"/>
<path d="M24.6 41.6375C24.2 41.6375 24.1 41.3375 24.3 41.0375L25.7 38.5375C25.9 38.2375 26.3 37.9375 26.7 37.9375H46.7C47.1 37.9375 47.3 38.2375 47.3 38.6375L47.1 41.0375C47.1 41.4375 46.7 41.7375 46.4 41.7375L24.6 41.6375Z" fill="white"/>
<path d="M128.4 21.4343C122.1 23.0343 117.8 24.2343 111.6 25.8343C110.1 26.2343 110 26.3343 108.7 24.8343C107.2 23.1343 106.1 22.0343 104 21.0343C97.7 17.9343 91.6 18.8343 85.9 22.5343C79.1 26.9343 75.6 33.4343 75.7 41.5343C75.8 49.5343 81.3 56.1343 89.2 57.2343C96 58.1343 101.7 55.7343 106.2 50.6343C107.1 49.5343 107.9 48.3343 108.9 46.9343C105.3 46.9343 100.8 46.9343 89.6 46.9343C87.5 46.9343 87 45.6343 87.7 43.9343C89 40.8343 91.4 35.6343 92.8 33.0343C93.1 32.4343 93.8 31.4343 95.3 31.4343C100.4 31.4343 119.2 31.4343 131.7 31.4343C131.5 34.1343 131.5 36.8343 131.1 39.5343C130 46.7343 127.3 53.3343 122.9 59.1343C115.7 68.6343 106.3 74.5343 94.4 76.1343C84.6 77.4343 75.5 75.5343 67.5 69.5343C60.1 63.9343 55.9 56.5343 54.8 47.3343C53.5 36.4343 56.7 26.6343 63.3 18.0343C70.4 8.73433 79.8 2.83433 91.3 0.734326C100.7 -0.965674 109.7 0.134328 117.8 5.63433C123.1 9.13433 126.9 13.9343 129.4 19.7343C130 20.6343 129.6 21.1343 128.4 21.4343Z" fill="white"/>
<path d="M161.5 76.738C152.4 76.538 144.1 73.938 137.1 67.938C131.2 62.838 127.5 56.338 126.3 48.638C124.5 37.338 127.6 27.338 134.4 18.438C141.7 8.83804 150.5 3.83803 162.4 1.73803C172.6 -0.061969 182.2 0.938029 190.9 6.83803C198.8 12.238 203.7 19.538 205 29.138C206.7 42.638 202.8 53.638 193.5 63.038C186.9 69.738 178.8 73.938 169.5 75.838C166.8 76.338 164.1 76.438 161.5 76.738ZM185.3 36.338C185.2 35.038 185.2 34.038 185 33.038C183.2 23.138 174.1 17.538 164.6 19.738C155.3 21.838 149.3 27.738 147.1 37.138C145.3 44.938 149.1 52.838 156.3 56.038C161.8 58.438 167.3 58.138 172.6 55.438C180.5 51.338 184.8 44.938 185.3 36.338Z" fill="white"/>
</svg>
