<svg width="800" height="800" viewBox="0 0 800 800" fill="none" xmlns="http://www.w3.org/2000/svg">
<path d="M527.609 438.611C510.895 358.256 428.372 263.109 337.173 242.311C242.338 220.891 178.869 220.294 104.411 270.353C82.5422 285.027 45.825 310.147 11.4954 347.602V472.216C59.8532 367.434 170.084 279.652 293.5 311.352C503.113 365.045 469.541 512.748 444.353 572.672C399.145 680.43 232.944 726.931 181.814 623.992C126.234 512.081 250.231 493.752 250.231 493.752C250.231 493.752 217.978 525.109 258.425 566.422C286.453 595.242 339.786 569.102 358.308 518.527C374.577 474.386 339.573 413.184 262.927 406.558C198.734 400.909 102.409 449.633 92.6063 547.581C83.3344 640.325 124.788 678.759 184.975 719.731C244.984 760.687 373.498 776.07 446.855 704.15C526.63 626.064 549.967 545.936 527.609 438.611ZM11.4954 0.78125V245.317C48.1204 212.923 78.6579 196.698 79.9126 195.925C213.586 118.378 331.416 156.797 400.713 178.758C510.172 213.328 596.183 299.445 633.32 387.994C676.574 491.044 639.152 687.947 493.153 787.425C486.775 791.762 480.381 795.464 473.984 799.22H788.505V0.78125H11.4954ZM11.4954 668.197V762.431C16.3516 766.43 21.1579 769.945 25.836 772.766C21.5266 770.994 16.6563 768.633 11.4954 765.82V799.219H148.239C138.138 793.747 128.831 788.147 120.706 782.617C80.586 755.172 37.7579 716.341 11.4954 668.197Z" fill="white"/>
</svg>
