<svg width="798" height="1078" viewBox="0 0 798 1078" fill="none" xmlns="http://www.w3.org/2000/svg">
<path d="M257.296 833.341C257.296 833.341 216.162 857.253 286.571 865.344C371.872 875.071 415.465 873.678 509.468 855.891C509.468 855.891 534.184 871.382 568.695 884.801C357.972 975.082 91.7805 879.57 257.296 833.341ZM231.546 715.527C231.546 715.527 185.409 749.668 255.872 756.952C346.992 766.349 418.95 767.118 543.468 743.15C543.468 743.15 560.691 760.604 587.772 770.15C332.991 844.625 49.2126 776.023 231.546 715.527Z" fill="white"/>
<path d="M448.624 515.68C500.548 575.437 434.982 629.212 434.982 629.212C434.982 629.212 566.822 561.177 506.274 475.978C449.724 396.53 406.355 357.049 641.127 220.94C641.127 220.94 272.615 312.947 448.624 515.68Z" fill="white"/>
<path d="M727.326 920.481C727.326 920.481 757.766 945.552 693.799 964.95C572.167 1001.79 187.547 1012.91 80.7006 966.418C42.2935 949.718 114.32 926.538 136.976 921.671C160.603 916.549 174.108 917.506 174.108 917.506C131.394 887.425 -101.979 976.568 55.5676 1002.09C485.214 1071.75 838.769 970.733 727.326 920.481ZM277.075 593.461C277.075 593.461 81.4362 639.915 207.797 656.779C261.148 663.92 367.506 662.306 466.576 654.006C547.542 647.183 628.841 632.665 628.841 632.665C628.841 632.665 600.292 644.887 579.638 658.985C380.967 711.218 -2.83007 686.92 107.66 633.49C201.102 588.339 277.075 593.461 277.075 593.461ZM628.034 789.563C829.996 684.655 736.616 583.84 671.44 597.424C655.464 600.745 648.342 603.624 648.342 603.624C648.342 603.624 654.273 594.339 665.599 590.32C794.537 545.004 893.701 723.97 623.976 794.851C623.976 794.854 627.102 792.062 628.034 789.563Z" fill="white"/>
<path d="M506.274 1.15595C506.274 1.15595 618.123 113.006 400.191 284.991C225.434 422.956 360.34 501.619 400.119 591.495C298.109 499.491 223.246 418.498 273.472 343.119C347.185 232.462 551.4 178.817 506.274 1.15595Z" fill="white"/>
<path d="M296.922 1073.84C490.777 1086.25 788.463 1066.96 795.513 975.263C795.513 975.263 781.961 1010.03 635.302 1037.63C469.842 1068.76 265.773 1065.12 144.736 1045.17C144.739 1045.17 169.511 1065.67 296.922 1073.84Z" fill="white"/>
</svg>
