<svg width="709" height="858" viewBox="0 0 709 858" fill="none" xmlns="http://www.w3.org/2000/svg">
<path d="M372.35 0.00031522C366.841 -0.00975478 361.095 0.22141 355.103 0.699145C203.663 12.8955 243.826 172.884 241.578 226.46C238.812 265.639 230.869 296.515 203.923 334.817C172.265 372.463 127.695 433.394 106.582 496.821C96.6167 526.756 91.8748 557.267 96.2541 586.144C94.8823 587.373 93.5763 588.66 92.3345 589.986C83.0399 599.908 76.1723 611.931 68.52 620.026C61.3707 627.158 51.1848 629.87 39.9913 633.886C28.7935 637.904 16.4992 643.827 9.03654 658.148C9.03654 658.148 9.03654 658.153 9.03154 658.155C9.01936 658.178 9.00607 658.201 8.99338 658.225C2.23776 670.843 4.2461 685.374 6.30931 698.836C8.37258 712.298 10.4613 725.019 7.68879 733.65C-1.17347 757.873 -2.30493 774.629 3.93382 786.782C10.1859 798.961 23.0406 804.337 37.5692 807.372C66.6266 813.441 105.978 811.932 136.991 828.37L139.657 823.34L137.019 828.385C170.22 845.743 203.88 851.909 230.734 845.775C250.204 841.328 266.009 829.735 274.126 811.896C295.13 811.792 318.179 802.896 355.1 800.863C380.147 798.846 411.436 809.758 447.426 807.76C448.366 811.664 449.728 815.42 451.592 818.989C451.611 819.025 451.629 819.062 451.648 819.098C465.599 846.996 491.522 859.757 519.148 857.577C546.81 855.394 576.221 839.083 599.994 810.79L595.636 807.128L600.028 810.75C622.688 783.274 660.3 771.881 685.24 756.839C697.709 749.317 707.828 739.9 708.61 726.221C709.391 712.549 701.364 697.228 682.908 676.74L682.903 676.735C682.896 676.726 682.888 676.718 682.881 676.71C676.817 669.857 673.924 657.155 670.815 643.63C667.708 630.112 664.24 615.53 653.142 606.08C653.12 606.061 653.098 606.043 653.076 606.024C648.659 602.175 644.069 599.563 639.447 597.808C654.876 552.048 648.822 506.483 633.247 465.307C614.132 414.773 580.76 370.741 555.274 340.619C526.746 304.635 498.842 270.471 499.392 220.012C500.242 143.001 507.863 0.185832 372.347 0.000879795L372.35 0.00031522ZM390.696 118.644C398.386 118.644 404.953 120.898 411.7 125.794C418.553 130.769 423.491 136.996 427.47 145.691C431.376 154.166 433.255 162.457 433.439 172.295C433.439 172.553 433.439 172.774 433.513 173.032C433.587 183.128 431.855 191.713 428.023 200.483C425.836 205.487 423.325 209.687 420.319 213.323C419.299 212.833 418.239 212.362 417.14 211.91C409.522 208.647 403.678 206.57 398.807 204.88C400.572 202.758 402.043 200.241 403.335 197.094C405.288 192.341 406.246 187.698 406.431 182.171C406.431 181.95 406.504 181.766 406.504 181.508C406.615 176.202 405.915 171.67 404.367 167.027C402.746 162.163 400.682 158.663 397.698 155.752C394.713 152.841 391.729 151.514 388.155 151.404C387.987 151.394 387.82 151.394 387.655 151.394C384.293 151.404 381.374 152.557 378.353 155.085C375.184 157.738 372.826 161.128 370.873 165.845C368.92 170.561 367.962 175.24 367.778 180.804C367.741 181.025 367.741 181.21 367.741 181.431C367.678 184.489 367.872 187.291 368.343 190.011C361.464 186.584 354.982 184.247 348.898 182.799C348.551 180.168 348.35 177.453 348.286 174.614V173.84C348.176 163.781 349.834 155.159 353.703 146.389C357.572 137.62 362.362 131.319 369.105 126.197C375.848 121.076 382.48 118.717 390.328 118.644C390.451 118.644 390.574 118.644 390.696 118.644ZM285.445 126.977C290.546 126.989 295.111 128.693 299.833 132.464C304.954 136.553 308.823 141.786 312.066 149.155C315.308 156.524 317.04 163.894 317.519 172.59V172.663C317.751 176.315 317.723 179.753 317.435 183.082C316.426 183.369 315.437 183.679 314.469 184.013C308.968 185.906 304.121 188.486 299.896 191.276C300.309 188.358 300.371 185.397 300.054 182.096C300.017 181.911 300.017 181.764 300.017 181.58C299.574 177.195 298.653 173.51 297.106 169.789C295.448 165.92 293.605 163.193 291.173 161.093C288.97 159.19 286.887 158.316 284.596 158.333C284.359 158.333 284.12 158.346 283.878 158.366C281.298 158.587 279.161 159.84 277.135 162.309C275.108 164.777 273.782 167.836 272.824 171.889C271.866 175.942 271.608 179.921 272.013 184.49C272.013 184.674 272.05 184.822 272.05 185.006C272.492 189.428 273.377 193.112 274.961 196.834C276.582 200.666 278.461 203.393 280.893 205.493C281.301 205.845 281.704 206.161 282.105 206.443C279.575 208.39 278.367 209.287 276.294 210.81C274.965 211.786 273.382 212.947 271.541 214.304C267.528 210.544 264.397 205.819 261.659 199.597C258.417 192.228 256.685 184.859 256.169 176.163V176.09C255.69 167.394 256.538 159.914 258.933 152.176C261.328 144.438 264.533 138.838 269.176 134.232C273.819 129.626 278.498 127.305 284.136 127.01C284.576 126.986 285.013 126.975 285.445 126.977ZM333.313 187.305C345.169 187.259 359.437 191.147 376.71 202.252C387.32 209.152 395.576 209.729 414.586 217.871L414.609 217.881L414.632 217.89C423.779 221.643 429.148 226.535 431.771 231.686C434.394 236.837 434.458 242.423 432.262 248.299C427.872 260.052 413.857 272.42 394.189 278.562L394.171 278.57L394.153 278.578C384.564 281.693 376.202 288.574 366.343 294.211C356.485 299.848 345.33 304.395 330.162 303.517C317.249 302.765 309.53 298.381 302.551 292.772C295.571 287.162 289.489 280.116 280.583 274.886L280.561 274.872L280.537 274.859C266.192 266.75 258.36 257.372 255.902 249.242C253.444 241.112 255.75 234.172 262.868 228.838C270.87 222.841 276.429 218.762 280.132 216.044C283.81 213.345 285.341 212.333 286.512 211.208C286.518 211.199 286.524 211.195 286.531 211.19L286.536 211.181C292.548 205.489 302.133 195.12 316.581 190.147C321.553 188.435 327.102 187.331 333.313 187.306L333.313 187.305ZM416.223 236.34C411.106 236.645 405.747 239.28 399.508 242.763C393.268 246.247 386.252 250.703 378.648 255.091C363.44 263.867 345.934 272.26 328.536 272.26C311.112 272.26 297.19 264.213 286.749 255.938C281.528 251.801 277.219 247.634 273.776 244.41C272.055 242.798 270.562 241.424 269.169 240.351C267.777 239.278 266.643 238.214 264.312 238.214L264.201 243.111C264.034 244.75 263.862 244.699 263.93 244.744C264.039 244.815 264.58 245.002 265.211 245.488C266.235 246.277 267.656 247.562 269.343 249.142C272.717 252.302 277.201 256.647 282.721 261.021C293.761 269.769 309.114 278.745 328.536 278.745C347.985 278.745 366.387 269.655 381.891 260.708C389.643 256.234 396.683 251.769 402.67 248.426C408.656 245.084 413.693 242.988 416.609 242.814L416.223 236.34ZM433.511 259.615C446.428 310.536 476.473 384.086 495.784 419.979C506.048 439.022 526.469 479.483 535.292 528.23C540.882 528.059 547.038 528.871 553.63 530.558C576.698 470.755 534.069 406.34 514.576 388.401C506.706 380.765 506.328 377.343 510.229 377.505C531.378 396.208 559.143 433.826 569.244 476.286C573.85 495.647 574.832 516.001 569.89 536.088C572.308 537.092 574.764 538.185 577.252 539.363C614.28 557.394 627.975 573.073 621.39 594.472C619.222 594.396 617.088 594.404 615.008 594.454C614.814 594.459 614.621 594.464 614.427 594.469C619.789 577.507 607.911 564.996 576.258 550.674C543.427 536.23 517.266 537.667 512.844 566.961C512.561 568.495 512.334 570.059 512.16 571.645C509.707 572.497 507.241 573.584 504.769 574.937C489.353 583.372 480.939 598.678 476.259 617.45C471.583 636.207 470.242 658.883 468.952 684.374C468.952 684.379 468.952 684.383 468.952 684.387C468.163 697.205 462.893 714.541 457.549 732.903C403.767 771.266 329.124 787.888 265.748 744.637C261.453 737.842 256.527 731.111 251.455 724.471C248.217 720.231 244.89 716.017 241.583 711.862C248.088 711.867 253.618 710.802 258.088 708.776C263.645 706.255 267.551 702.207 269.482 697.011C273.346 686.618 269.466 671.956 257.096 655.214C244.728 638.473 223.78 619.578 192.998 600.7C192.998 600.7 192.993 600.7 192.993 600.695C170.379 586.626 157.732 569.382 151.812 550.659C145.892 531.934 146.722 511.686 151.284 491.696C160.042 453.324 182.544 416.005 196.902 392.586C200.767 389.741 198.283 397.865 182.367 427.421C168.103 454.443 141.436 516.805 177.948 565.484C178.923 530.841 187.197 495.51 201.085 462.462C221.315 416.606 263.629 337.085 266.989 273.705C268.722 274.963 274.676 278.981 277.329 280.49C277.334 280.498 277.341 280.498 277.346 280.499C285.109 285.07 290.939 291.752 298.49 297.82C306.055 303.901 315.507 309.152 329.786 309.984C346.453 310.949 359.156 305.786 369.564 299.835C379.955 293.893 388.257 287.317 396.122 284.75C396.134 284.742 396.146 284.742 396.158 284.739C412.777 279.541 425.991 270.343 433.511 259.614L433.511 259.615ZM539.07 551.138C545.801 551.106 553.956 553.351 562.882 557.344C586.906 568.435 594.423 577.941 587.864 591.906C582.337 602.445 558.682 619.21 542.469 614.788C525.925 610.514 517.855 586.674 520.545 568.656C521.986 556.421 528.906 551.185 539.07 551.138ZM511.888 584.064C513.246 606.097 524.148 628.569 543.427 633.433C564.525 638.991 594.943 620.89 607.786 606.125C610.347 606.022 612.85 605.897 615.282 605.838C626.547 605.566 635.996 606.209 645.65 614.652L645.684 614.681L645.718 614.709C653.137 620.995 656.664 632.873 659.722 646.18C662.781 659.487 665.227 673.98 674.399 684.304L674.413 684.319L674.425 684.333C692.059 703.902 697.727 717.129 697.245 725.571C696.762 734.013 690.65 740.281 679.363 747.088C656.798 760.698 616.817 772.532 591.28 803.465C569.106 829.853 542.067 844.346 518.255 846.226C494.442 848.105 473.897 838.222 461.785 813.911L461.757 813.856L461.728 813.802C454.214 799.508 457.344 776.95 463.674 753.155C470.004 729.361 479.099 704.929 480.316 685.072V685.04V685.01C481.604 659.567 483.028 637.348 487.302 620.204C491.576 603.06 498.306 591.448 510.23 584.924C510.786 584.62 511.337 584.333 511.885 584.063L511.888 584.064ZM124.663 585.726C126.443 585.733 128.326 585.882 130.333 586.186C143.83 588.23 155.601 597.668 166.941 613.049C178.282 628.431 188.834 649.428 199.681 672.719L199.695 672.748L199.707 672.776C208.424 690.969 226.818 710.974 242.406 731.382C257.994 751.789 270.057 772.274 268.486 787.953L268.479 788.021L268.474 788.089C266.442 814.83 251.358 829.387 228.202 834.676C205.053 839.963 173.671 834.693 142.326 818.311C142.317 818.306 142.307 818.302 142.298 818.297C107.619 799.929 66.3647 801.754 39.901 796.227C26.6655 793.462 18.0294 789.306 14.0656 781.584C10.1016 773.863 10.0131 760.391 18.4365 737.421L18.4736 737.32L18.5069 737.217C22.6726 724.368 19.5898 710.308 17.5673 697.112C15.5448 683.916 14.5558 671.912 19.0619 663.546L19.0826 663.508L19.1032 663.468C24.8725 652.348 33.335 648.372 43.8378 644.604C54.3405 640.836 66.7946 637.876 76.6291 628.021L76.68 627.969L76.7308 627.916C85.8225 618.324 92.6517 606.302 100.644 597.769C107.388 590.57 114.137 585.798 124.309 585.727C124.427 585.727 124.545 585.727 124.664 585.727L124.663 585.726Z" fill="white"/>
</svg>
