<svg width="1774" height="817" viewBox="0 0 1774 817" fill="none" xmlns="http://www.w3.org/2000/svg">
<path d="M140.381 171.858H403.48C480.686 172.452 536.654 192.858 571.343 233.044C606.031 273.227 617.483 328.113 605.698 397.703C601.117 429.5 590.977 460.687 575.257 491.28C559.995 522.151 538.715 550.206 512.438 574.059C479.707 605.246 444.706 625.041 407.394 633.444C370.103 641.849 331.477 646.043 291.56 646.043H173.758L136.454 817H0L140.381 171.858ZM255.239 274.434L196.337 544.366C200.263 544.96 204.19 545.267 208.117 545.267H221.86C284.688 545.861 337.05 540.172 378.931 528.171C420.803 515.575 448.954 471.791 463.362 396.802C475.126 333.819 463.362 297.522 428.007 287.93C393.319 278.337 349.812 273.838 297.45 274.434C289.596 275.027 282.078 275.333 274.871 275.333H254.256L255.239 274.434ZM761.131 0H896.616L858.326 171.858H980.048C1046.8 173.063 1096.54 185.659 1129.28 209.648C1162.65 233.637 1172.46 279.236 1158.72 346.416L1092.94 646.043H955.521L1018.34 359.911C1024.88 329.913 1022.92 308.624 1012.45 296.027C1001.99 283.43 979.403 277.133 944.714 277.133L835.755 276.232L755.238 646.043H619.774L761.131 0ZM1304.2 171.858H1567.28C1644.5 172.452 1700.45 192.858 1735.16 233.044C1769.85 273.227 1781.3 328.113 1769.52 397.703C1764.94 429.5 1754.8 460.687 1739.08 491.28C1723.81 522.151 1702.51 550.206 1676.26 574.059C1643.53 605.246 1608.53 625.041 1571.21 633.444C1533.9 641.849 1495.3 646.043 1455.38 646.043H1337.57L1300.26 817H1163.82L1304.2 171.858ZM1419.05 274.434L1360.15 544.366C1364.08 544.96 1367.99 545.267 1371.93 545.267H1385.67C1448.51 545.861 1500.86 540.172 1542.75 528.171C1584.62 515.575 1612.77 471.791 1627.16 396.802C1638.95 333.819 1627.16 297.522 1591.83 287.93C1557.14 278.337 1513.62 273.838 1461.25 274.434C1453.4 275.027 1445.89 275.333 1438.68 275.333H1418.07L1419.05 274.434Z" fill="white"/>
</svg>
