<svg width="800" height="800" viewBox="0 0 800 800" fill="none" xmlns="http://www.w3.org/2000/svg">
<g clip-path="url(#clip0_2_70)">
<path d="M356.18 326.189C356.18 370.87 324.503 396.325 272.469 396.325C258.323 396.325 247.017 395.756 238.531 393.495V264.539C245.888 262.841 259.461 261.144 278.688 261.144C326.77 261.144 356.18 283.769 356.18 326.189ZM799.219 133.855V666.147C799.219 739.338 739.336 799.22 666.145 799.22H133.855C60.6641 799.219 0.78125 739.336 0.78125 666.145V133.855C0.78125 60.6641 60.6641 0.78125 133.855 0.78125H666.147C739.336 0.78125 799.219 60.6641 799.219 133.855ZM425.745 323.359C425.745 287.73 411.047 257.752 388.422 239.088C364.095 218.723 326.772 207.977 275.863 207.977C228.917 207.977 194.414 211.372 169.528 215.897V592.019H238.534V448.356C247.586 450.058 259.464 450.623 272.472 450.623C321.68 450.623 365.227 437.608 392.947 409.902C414.437 389.536 425.745 359.558 425.745 323.359ZM630.473 312.05C624.814 310.916 620.858 310.352 614.067 310.352C584.652 310.352 552.417 330.15 538.842 369.175H536.581L534.32 316.572H473.802C475.491 341.458 476.062 368.044 476.062 405.373V592.019H545.627V449.484C545.627 441.572 546.758 434.216 547.888 427.997C554.111 396.889 576.737 375.395 610.108 375.395C618.595 375.395 624.813 376.527 630.472 377.656L630.473 312.05Z" fill="white"/>
</g>
<defs>
<clipPath id="clip0_2_70">
<rect width="800" height="800" fill="white"/>
</clipPath>
</defs>
</svg>
