<svg width="781" height="777" viewBox="0 0 781 777" fill="none" xmlns="http://www.w3.org/2000/svg">
<path d="M387.48 0C189.319 0 201.692 85.9345 201.692 85.9345L201.912 174.965H391.014V201.695H126.803C126.803 201.695 0 187.314 0 387.257C0 587.206 110.677 580.115 110.677 580.115H176.729V487.331C176.729 487.331 173.168 376.654 285.639 376.654H473.195C473.195 376.654 578.569 378.356 578.569 274.813V103.61C578.569 103.61 594.573 0 387.48 0ZM283.209 59.8714C287.678 59.8674 292.104 60.7446 296.233 62.4528C300.362 64.161 304.114 66.6667 307.274 69.8265C310.433 72.9862 312.939 76.7381 314.647 80.8673C316.356 84.9965 317.233 89.4221 317.229 93.8907C317.233 98.3593 316.356 102.785 314.647 106.914C312.939 111.043 310.433 114.795 307.274 117.955C304.114 121.115 300.362 123.62 296.233 125.329C292.104 127.037 287.678 127.914 283.209 127.91C278.741 127.914 274.315 127.037 270.186 125.329C266.057 123.62 262.305 121.115 259.145 117.955C255.985 114.795 253.48 111.043 251.772 106.914C250.063 102.785 249.186 98.3593 249.19 93.8907C249.186 89.4221 250.063 84.9965 251.772 80.8673C253.48 76.7381 255.985 72.9862 259.145 69.8265C262.305 66.6667 266.057 64.161 270.186 62.4528C274.315 60.7446 278.741 59.8674 283.209 59.8714Z" fill="white"/>
<path d="M393.107 776.525C591.269 776.525 578.896 690.591 578.896 690.591L578.676 601.563H389.571V574.834H653.781C653.781 574.834 780.584 589.215 780.584 389.265C780.584 189.319 669.907 196.41 669.907 196.41H603.855V289.191C603.855 289.191 607.416 399.868 494.945 399.868H307.39C307.39 399.868 202.016 398.166 202.016 501.712V672.918C202.016 672.918 186.015 776.525 393.104 776.525H393.107ZM497.378 716.66C492.909 716.664 488.484 715.787 484.355 714.079C480.225 712.37 476.473 709.865 473.314 706.705C470.154 703.545 467.648 699.793 465.94 695.664C464.232 691.535 463.355 687.109 463.359 682.641C463.354 678.172 464.231 673.746 465.939 669.616C467.647 665.487 470.153 661.735 473.313 658.574C476.472 655.414 480.224 652.908 484.354 651.2C488.483 649.492 492.909 648.614 497.378 648.618C501.847 648.614 506.272 649.492 510.401 651.2C514.53 652.908 518.282 655.414 521.442 658.573C524.602 661.733 527.108 665.485 528.816 669.614C530.524 673.743 531.401 678.169 531.397 682.638C531.401 687.106 530.524 691.532 528.816 695.661C527.108 699.79 524.602 703.542 521.442 706.702C518.282 709.862 514.53 712.367 510.401 714.075C506.272 715.784 501.847 716.664 497.378 716.66Z" fill="white"/>
</svg>
