<svg width="800" height="800" viewBox="0 0 800 800" fill="none" xmlns="http://www.w3.org/2000/svg">
<g clip-path="url(#clip0_1_2)">
<path d="M101.875 389.688C99.375 389.688 97.5 391.563 97.1875 394.375L90 481.875L97.1875 566.563C97.5 569.063 99.375 571.25 101.875 571.25C104.375 571.25 106.25 569.375 106.563 566.563L114.687 481.875L106.563 394.375C106.25 391.563 104.063 389.688 101.875 389.688Z" fill="white"/>
<path d="M133.75 395.312C130.938 395.312 128.438 397.5 128.438 400.625L121.875 481.875L128.438 567.187C128.75 570.312 130.938 572.5 133.75 572.5C136.563 572.5 138.75 570.312 139.062 567.187L146.562 481.875L139.062 400.625C138.75 397.5 136.563 395.312 133.75 395.312Z" fill="white"/>
<path d="M38.75 406.562C37.1875 406.562 35.6249 407.812 35.3124 409.688L27.4999 481.562L35.3124 551.875C35.6249 553.75 36.875 555 38.75 555C40.3125 555 41.875 553.75 42.1875 551.875L51.25 481.562L42.1875 409.688C41.5625 408.125 40.3125 406.562 38.75 406.562Z" fill="white"/>
<path d="M9.06248 434.062C7.49998 434.062 5.93748 435.313 5.93748 437.188L0 481.875L5.93748 525.625C6.24998 527.5 7.49998 528.75 9.06248 528.75C10.625 528.75 11.875 527.5 12.1875 525.625L19.0625 481.875L12.1875 437.5C11.875 435.625 10.625 434.062 9.06248 434.062Z" fill="white"/>
<path d="M198.438 312.812C194.688 312.812 191.875 315.625 191.563 319.375L185.625 481.875L191.563 566.875C191.875 570.625 194.688 573.437 198.438 573.437C202.188 573.437 205 570.625 205.313 566.875L211.875 481.875L205.313 319.375C205 315.625 201.875 312.812 198.438 312.812Z" fill="white"/>
<path d="M70 392.5C67.8125 392.5 66.25 394.062 65.9375 396.562L58.4375 481.875L65.9375 564.062C66.25 566.25 67.8125 568.125 70 568.125C72.1875 568.125 73.75 566.562 74.0625 564.375L82.5 482.188L74.0625 396.875C73.75 394.375 72.1875 392.5 70 392.5Z" fill="white"/>
<path d="M165.938 343.75C162.813 343.75 160 346.25 160 349.687L153.75 481.875L160 567.188C160.313 570.625 162.813 573.125 165.938 573.125C169.063 573.125 171.875 570.625 171.875 567.188L179.063 481.875L171.875 349.687C171.875 346.25 169.063 343.75 165.938 343.75Z" fill="white"/>
<path d="M364.375 268.438C358.75 268.438 354.375 272.813 354.375 278.438L350.625 481.563L354.375 563.125C354.375 568.75 359.063 573.125 364.375 573.125C370 573.125 374.375 568.438 374.375 563.125L378.75 481.563L374.375 278.438C374.688 273.125 370 268.438 364.375 268.438Z" fill="white"/>
<path d="M230.937 298.438C226.875 298.438 223.75 301.562 223.438 305.937L217.812 481.875L223.438 565.937C223.438 570 226.875 573.125 230.937 573.125C235 573.125 238.125 570 238.438 565.625L244.688 481.563L238.438 305.625C238.438 301.875 235 298.438 230.937 298.438Z" fill="white"/>
<path d="M701.562 376.875C688.125 376.875 675.312 379.688 663.437 384.375C655.625 295.625 581.25 226.25 490.625 226.25C468.437 226.25 446.875 230.625 427.812 238.125C420.312 240.938 418.437 244.063 418.437 249.688V561.875C418.437 567.813 423.125 572.813 429.062 573.438C429.375 573.438 700 573.438 701.875 573.438C756.25 573.438 800.312 529.375 800.312 475C800 420.938 755.937 376.875 701.562 376.875Z" fill="white"/>
<path d="M398.125 249.375C392.187 249.375 387.5 254.375 387.187 260.312L382.812 481.875L387.187 562.187C387.187 568.125 392.187 572.812 398.125 572.812C404.062 572.812 408.75 567.812 409.062 561.875L413.75 481.25L409.062 259.687C408.75 254.375 404.062 249.375 398.125 249.375Z" fill="white"/>
<path d="M264.062 291.875C259.687 291.875 256.25 295.313 255.937 300L250.938 481.875L255.937 565.313C255.937 569.688 259.687 573.438 264.062 573.438C268.437 573.438 271.875 570 272.188 565.313L277.812 481.875L272.188 300C271.875 295.313 268.437 291.875 264.062 291.875Z" fill="white"/>
<path d="M297.188 295.938C292.5 295.938 288.438 299.687 288.438 304.687L283.75 481.875L288.438 564.688C288.438 569.688 292.5 573.437 297.188 573.437C301.875 573.437 305.937 569.688 305.937 564.688L311.25 481.875L305.937 304.687C305.937 299.687 302.188 295.938 297.188 295.938Z" fill="white"/>
<path d="M330.625 301.562C325.313 301.562 321.25 305.625 321.25 310.938L316.875 481.875L321.25 564.062C321.25 569.375 325.625 573.438 330.625 573.438C335.938 573.438 340 569.375 340 564.062L344.688 481.875L340 310.938C340 305.937 335.938 301.562 330.625 301.562Z" fill="white"/>
<path d="M532.8 561H478.8V458.4L452.025 476.85L426.825 437.7L483.3 401.7H532.8V561ZM650.294 565.5C613.169 565.5 580.544 546.15 580.544 505.2C580.544 485.175 589.769 467.4 600.344 452.775L636.794 401.7H701.819L663.119 451.425V451.65H665.594C693.044 451.65 720.044 470.775 720.044 504.75C720.044 544.8 687.419 565.5 650.294 565.5ZM650.294 521.4C660.419 521.4 667.169 514.2 667.169 504.975C667.169 495.975 660.419 489 650.294 489C640.619 489 633.869 495.975 633.869 504.975C633.869 514.2 640.619 521.4 650.294 521.4Z" fill="black"/>
</g>
<defs>
<clipPath id="clip0_1_2">
<rect width="800" height="800" fill="white"/>
</clipPath>
</defs>
</svg>
