<svg width="513" height="500" viewBox="0 0 513 500" fill="none" xmlns="http://www.w3.org/2000/svg">
<g clip-path="url(#clip0_1_2)">
<path d="M90.75 0H421.75C445.818 0 468.901 9.56113 485.92 26.5801C502.939 43.599 512.5 66.6816 512.5 90.75V408.91C512.5 432.978 502.939 456.061 485.92 473.08C468.901 490.099 445.818 499.66 421.75 499.66H90.75C66.6816 499.66 43.599 490.099 26.5801 473.08C9.56113 456.061 0 432.978 0 408.91L0 90.75C0 66.6816 9.56113 43.599 26.5801 26.5801C43.599 9.56113 66.6816 0 90.75 0Z" fill="white"/>
<path d="M110.85 350.39V130.71C110.85 129.11 111.53 128.31 112.91 128.31C116.57 128.31 120.923 128.253 125.97 128.14C131.017 128.027 136.46 127.91 142.3 127.79L160.87 127.45C167.403 127.33 173.877 127.27 180.29 127.27C197.71 127.27 212.377 129.45 224.29 133.81C235.047 137.441 244.856 143.43 253 151.34C259.905 158.194 265.241 166.464 268.64 175.58C271.859 184.449 273.49 193.815 273.46 203.25C273.46 221.59 269.22 236.717 260.74 248.63C252.204 260.604 240.206 269.678 226.36 274.63C210.929 280.181 194.628 282.918 178.23 282.71C173.183 282.71 169.63 282.65 167.57 282.53C165.51 282.42 162.41 282.36 158.29 282.36V350.09C158.39 350.807 158.202 351.535 157.767 352.114C157.333 352.693 156.687 353.076 155.97 353.18C155.715 353.22 155.455 353.22 155.2 353.18H113.25C111.65 353.14 110.85 352.23 110.85 350.39ZM158.29 169.56V240.73C161.263 240.963 164.013 241.077 166.54 241.07H177.88C186.201 241.19 194.491 240.03 202.46 237.63C209.272 235.607 215.36 231.671 220 226.29C224.467 221.023 226.7 213.69 226.7 204.29C226.873 197.642 225.138 191.083 221.7 185.39C218.072 179.876 212.835 175.613 206.7 173.18C198.71 170.079 190.177 168.62 181.61 168.89C176.11 168.89 171.24 168.947 167 169.06C162.76 169.173 159.837 169.343 158.23 169.57L158.29 169.56Z" fill="black"/>
<path d="M401 319.11V347.3C401 349.82 400.083 351.31 398.25 351.77C393.737 353.18 389.146 354.329 384.5 355.21C379.055 356.18 373.531 356.638 368 356.58C353.1 356.58 341.413 352.683 332.94 344.89C324.467 337.097 320.227 324.607 320.22 307.42V222.16H299.92C298.09 222.16 297.17 221.16 297.17 219.07V185C297.17 183.17 298.17 182.25 300.27 182.25H320.55C320.777 178.357 321.063 173.83 321.41 168.67C321.76 163.52 322.21 158.36 322.79 153.2C323.37 148.04 323.87 143.86 324.33 140.66C324.549 139.976 324.888 139.336 325.33 138.77C325.776 138.21 326.373 137.791 327.05 137.56L368 132.44C368.622 132.255 369.288 132.287 369.89 132.53C370.35 132.76 370.41 133.36 370.41 134.53C369.95 139.803 369.617 146.967 369.41 156.02C369.203 165.073 368.973 173.837 368.72 182.31H400.72C402.1 182.31 402.79 183.23 402.79 185.06V219.79C402.872 220.335 402.738 220.891 402.417 221.339C402.095 221.787 401.612 222.092 401.07 222.19H368.34V295.76C368.34 303.56 369.673 309.12 372.34 312.44C375.007 315.76 379.877 317.427 386.95 317.44C389.01 317.44 390.95 317.39 392.8 317.27C394.65 317.15 396.46 316.98 398.3 316.75C398.608 316.636 398.937 316.592 399.264 316.622C399.591 316.651 399.907 316.753 400.19 316.92C400.497 317.188 400.732 317.529 400.874 317.912C401.015 318.294 401.059 318.706 401 319.11Z" fill="black"/>
</g>
<defs>
<clipPath id="clip0_1_2">
<rect width="512.47" height="499.66" fill="white"/>
</clipPath>
</defs>
</svg>
