<svg width="701" height="600" viewBox="0 0 701 600" fill="none" xmlns="http://www.w3.org/2000/svg">
<path d="M435.55 0.0249982C435.55 0.0249982 590.975 88.875 631.65 230.025C668.3 357.525 638.95 418.375 638.95 418.375C657.693 438.797 672.463 462.536 682.5 488.375C692.582 504.976 698.506 523.767 699.768 543.149C701.03 562.531 697.594 581.931 689.75 599.7C689.75 599.7 687.25 547.7 609.75 536.925C538.725 526.925 512.9 596.075 377.25 592.725C302.09 591.293 228.421 571.497 162.666 535.064C96.9107 498.631 41.0659 446.666 0 383.7C66.275 419.85 153.1 475.975 261.225 467.35C369.35 458.725 391.925 425.5 391.925 425.5C270.387 329.324 162.808 216.722 72.275 90.925C157.275 162.05 367.825 303.6 362.925 300C285.91 224.746 215.447 143.068 152.3 55.85C152.3 55.85 468.2 315.575 493.625 313.925C504.075 292.4 558.1 180.975 435.525 0L435.55 0.0249982Z" fill="url(#paint0_linear_2_99)"/>
<defs>
<linearGradient id="paint0_linear_2_99" x1="361" y1="240.025" x2="347.784" y2="600.001" gradientUnits="userSpaceOnUse">
<stop stop-color="white"/>
</linearGradient>
</defs>
</svg>
