<svg width="435" height="435" viewBox="0 0 435 435" fill="none" xmlns="http://www.w3.org/2000/svg">
<path fill-rule="evenodd" clip-rule="evenodd" d="M55.6448 253.975C65.7606 237.314 72.1991 225.242 84.8607 209.659C93.7929 198.664 114.074 177.123 129.781 177.123C134.746 177.123 140.631 181.45 140.631 186.164V292.252C140.518 304.819 125.745 303.283 118.329 300.69C121.661 306.988 131.506 315.723 136.931 320.062C160.435 338.859 191.728 346.293 220.891 350.435L252.482 316.89C254.295 318.051 281.492 341.101 282.282 342.282C314.425 324.011 347.387 284.511 361.244 253.072C356.088 256.525 347.213 269.067 329.107 278.8C321.176 283.064 307.806 286.752 301.951 277.679C301.951 236.523 299.897 194.187 301.528 153.573C301.693 149.477 304.097 146.438 305.86 143.626C314.325 130.132 324.915 117.67 334.758 105.24C336.932 102.494 338.594 100.756 340.826 97.821C303.932 105.451 281.497 121.001 260.728 139.294C259.21 140.831 258.07 142.225 256.363 143.368C247.119 138.477 241.663 137.943 229.841 137.943C237.734 144.44 242.96 150.282 245.647 160.714C248.141 170.404 246.719 186.957 246.719 198.823V276.58C242.775 277.633 216.803 303.6 199.301 286.098C194.227 281.024 195.087 279.098 195.088 269.629L194.485 144.988C193.166 145.664 189.221 148.498 184.452 146.315C176.658 142.745 177.212 129.625 177.212 122.384C177.212 114.573 184.142 103.777 188.032 99.4493C198.229 88.1088 197.639 89.8311 205.478 84.3215C199.958 84.7807 182.04 92.124 177.052 94.1951C143.43 108.14 92.2195 152.698 69.5555 193.798C58.6077 213.652 53.5712 234.673 55.6448 253.975ZM217.378 434.756C337.432 434.756 434.755 337.433 434.755 217.378C434.755 97.3233 337.432 0 217.378 0C97.3234 0 0 97.3233 0 217.378C0 337.433 97.3234 434.756 217.378 434.756ZM217.378 406.506C321.83 406.506 406.505 321.83 406.505 217.378C406.505 112.926 321.83 28.2506 217.378 28.2506C112.925 28.2506 28.2501 112.926 28.2501 217.378C28.2501 321.83 112.925 406.506 217.378 406.506Z" fill="white"/>
</svg>
