<svg width="800" height="800" viewBox="0 0 800 800" fill="none" xmlns="http://www.w3.org/2000/svg">
<path d="M410.891 130.092C407.842 114.83 411.734 99.0094 422.289 82.6282C434.772 62.9157 449.48 52.0985 466.414 49.8719C488.345 47.3766 508.605 59.0298 527.48 84.2938C544.967 107.884 552.744 130.092 550.802 150.356C550.517 162.569 532.484 170.061 496.673 172.556C468.633 174.783 448.373 172.003 435.316 163.952C421.72 155.908 413.669 144.531 410.891 130.092ZM797.837 747.709C795.897 751.863 788.97 751.311 777.02 746.038C756.761 736.325 734.278 721.609 709.02 701.62C680.98 679.42 664.597 661.933 660.159 649.159C659.33 646.105 659.612 642.227 661.272 637.23L666.553 623.067C670.155 610.025 665.433 596.983 652.391 583.925C646.012 577.545 637.406 571.444 626.852 565.608C602.155 552.566 566.62 541.466 519.711 532.577C471.127 523.419 424.783 518.145 380.644 517.039L327.07 519.817C312.914 536.191 299.319 551.453 286.262 565.608C275.162 577.269 264.345 588.094 253.791 598.088C211.323 636.117 169.97 664.988 129.439 684.969C74.1984 711.897 32.839 719.667 4.8031 707.73C1.19528 705.234 0.0827838 701.074 1.19528 695.239L6.19216 679.695C25.3453 638.059 56.7109 600.03 99.7375 565.606C103.345 562.559 107.23 559.78 110.837 557.009C144.981 531.745 191.056 505.1 249.075 477.619C287.097 461.245 318.47 450.42 342.897 445.147L365.934 413.22C375.092 401.844 384.803 391.019 394.522 380.741C415.339 358.256 436.705 337.445 459.203 318.845C461.139 318.009 461.422 316.903 460.302 315.514C448.927 309.134 430.331 297.189 405.077 279.703C383.414 264.995 366.487 254.724 354.266 249.166C315.967 231.963 276.825 236.959 236.584 264.159C212.428 280.256 199.384 298.027 197.997 317.456L196.606 341.33C197.997 347.986 176.625 359.092 132.769 374.636C124.717 377.133 118.055 379.352 112.503 380.739C102.784 382.681 96.1218 382.966 92.7968 381.292L91.6843 380.739L88.6359 378.797C84.7453 371.028 103.069 344.377 143.317 298.578C146.095 295.467 148.902 292.447 151.723 289.469L151.817 289.349L151.909 289.286C224.778 212.638 310.719 182.973 409.508 200.595C436.706 205.316 481.689 221.967 544.697 250.284C551.623 243.339 563.573 235.017 579.948 225.575C600.767 213.645 617.97 207.252 631.02 206.983C659.616 206.7 677.648 217.524 685.148 240.009C689.586 253.619 679.591 272.772 654.895 297.474C629.362 323.566 605.206 339.941 582.445 346.595C553.85 355.208 522.761 350.209 489.73 332.172C475.028 343.549 458.37 359.93 440.323 380.741C439.494 381.577 438.658 382.683 437.828 383.519L395.086 434.597L394.527 438.199L423.95 437.094C445.045 437.653 466.417 441.253 488.348 448.194C548.033 467.347 597.992 490.936 638.233 518.98C657.386 532.575 676 548.127 693.478 565.606C711.519 583.924 729.005 604.466 745.38 626.95C759.827 646.947 772.033 667.198 782.297 687.464C796.733 715.784 801.998 735.766 797.837 747.709ZM579.112 261.389C584.386 265.55 596.875 267.222 617.142 266.386C639.619 265.55 654.894 261.113 663.492 252.506C667.661 248.339 667.661 244.178 662.939 240.294C657.666 235.573 647.953 234.467 634.075 236.403C622.137 238.345 609.366 242.506 595.492 248.9C581.891 255.28 576.334 259.447 579.112 261.389ZM276.273 527.303L269.887 526.475C250.734 530.366 232.97 534.803 216.597 539.808C193.561 547.294 172.181 555.899 152.477 565.609C136.655 573.109 121.939 581.439 108.344 590.314C65.0343 618.349 45.0515 645.561 48.6593 671.922L52.8265 676.642C64.2031 684.142 86.6875 678.306 119.995 659.155C165.248 632.794 205.766 601.703 241.577 565.609C253.514 553.395 265.167 540.63 276.273 527.303Z" fill="white"/>
</svg>
