<svg width="800" height="800" viewBox="0 0 800 800" fill="none" xmlns="http://www.w3.org/2000/svg">
<path fill-rule="evenodd" clip-rule="evenodd" d="M400 100C412.843 100 423.256 110.412 423.256 123.256V216.295C440.28 216.33 455.723 216.447 469.773 216.832L469.767 216.279V123.256C469.767 110.412 480.18 100 493.023 100C505.866 100 516.28 110.412 516.28 123.256V216.279C516.28 217.496 516.186 218.691 516.006 219.857C547.206 223.689 568.827 231.626 585.267 248.066C601.707 264.506 609.643 286.127 613.477 317.328C614.643 317.148 615.836 317.054 617.053 317.054H710.076C722.92 317.054 733.333 327.466 733.333 340.31C733.333 353.153 722.92 363.567 710.076 363.567H617.053L616.5 363.56C616.887 377.61 617.02 393.053 617.053 410.077H710.076C722.92 410.077 733.333 420.49 733.333 433.333C733.333 446.177 722.92 456.59 710.076 456.59H617.04C617.003 473.613 616.887 489.057 616.5 503.107L617.053 503.1H710.076C722.92 503.1 733.333 513.513 733.333 526.357C733.333 539.2 722.92 549.613 710.076 549.613H617.053C615.836 549.613 614.643 549.52 613.477 549.34C609.643 580.54 601.707 602.16 585.267 618.6C568.827 635.04 547.206 642.977 516.006 646.81C516.186 647.977 516.28 649.17 516.28 650.387V743.41C516.28 756.253 505.866 766.667 493.023 766.667C480.18 766.667 469.767 756.253 469.767 743.41V650.387L469.773 649.833C455.723 650.22 440.28 650.353 423.256 650.387V743.41C423.256 756.253 412.843 766.667 400 766.667C387.156 766.667 376.743 756.253 376.743 743.41V650.373C359.72 650.337 344.277 650.22 330.226 649.833L330.232 650.387V743.41C330.232 756.253 319.82 766.667 306.976 766.667C294.133 766.667 283.721 756.253 283.721 743.41V650.387C283.721 649.17 283.814 647.977 283.995 646.81C252.794 642.977 231.172 635.04 214.732 618.6C198.293 602.16 190.355 580.54 186.523 549.34C185.357 549.52 184.162 549.613 182.945 549.613H89.9222C77.0785 549.613 66.6665 539.2 66.6665 526.357C66.6665 513.513 77.0785 503.1 89.9222 503.1H182.945L183.498 503.107C183.114 489.057 182.981 473.613 182.945 456.59H89.9222C77.0785 456.59 66.6665 446.177 66.6665 433.333C66.6665 420.49 77.0785 410.077 89.9222 410.077H182.961C182.997 393.053 183.114 377.61 183.498 363.56L182.945 363.567H89.9222C77.0785 363.567 66.6665 353.153 66.6665 340.31C66.6665 327.466 77.0785 317.054 89.9222 317.054H182.945C184.162 317.054 185.357 317.148 186.523 317.328C190.355 286.127 198.293 264.506 214.732 248.066C231.172 231.626 252.794 223.689 283.995 219.857C283.814 218.691 283.721 217.496 283.721 216.279V123.256C283.721 110.412 294.133 100 306.976 100C319.82 100 330.232 110.412 330.232 123.256V216.279L330.226 216.832C344.277 216.447 359.72 216.315 376.743 216.279V123.256C376.743 110.412 387.156 100 400 100ZM367.46 286.047C346.846 286.045 329.082 286.044 314.858 287.957C299.613 290.006 285 294.628 273.148 306.481C261.295 318.334 256.673 332.946 254.623 348.19C252.711 362.417 252.712 380.18 252.713 400.793V465.873C252.712 486.487 252.711 504.25 254.623 518.477C256.673 533.72 261.295 548.333 273.148 560.187C285 572.04 299.613 576.66 314.858 578.71C329.082 580.623 346.846 580.62 367.46 580.62H432.54C453.153 580.62 470.916 580.623 485.143 578.71C500.386 576.66 515 572.04 526.853 560.187C538.706 548.333 543.326 533.72 545.376 518.477C547.29 504.25 547.286 486.487 547.286 465.873V400.793C547.286 380.18 547.29 362.417 545.376 348.19C543.326 332.946 538.706 318.334 526.853 306.481C515 294.628 500.386 290.006 485.143 287.957C470.916 286.044 453.156 286.045 432.54 286.047H367.46Z" fill="white"/>
<path d="M306.03 339.363C307.801 337.593 310.962 335.403 321.049 334.047C331.805 332.601 346.403 332.552 368.987 332.552H431.003C453.583 332.552 468.183 332.601 478.94 334.047C489.027 335.403 492.187 337.593 493.957 339.363C495.727 341.133 497.917 344.297 499.273 354.383C500.72 365.14 500.77 379.737 500.77 402.32V464.337C500.77 486.917 500.72 501.517 499.273 512.273C497.917 522.36 495.727 525.52 493.957 527.29C492.187 529.06 489.027 531.25 478.94 532.607C468.183 534.053 453.583 534.103 431.003 534.103H368.987C346.403 534.103 331.805 534.053 321.049 532.607C310.962 531.25 307.801 529.06 306.03 527.29C304.26 525.52 302.07 522.36 300.714 512.273C299.268 501.517 299.219 486.917 299.219 464.337V402.32C299.219 379.737 299.268 365.14 300.714 354.383C302.07 344.297 304.26 341.133 306.03 339.363Z" fill="white"/>
</svg>
