<svg width="408" height="229" viewBox="0 0 408 229" fill="none" xmlns="http://www.w3.org/2000/svg">
<path d="M24.7 229C21.5 229 18.9 226.4 18.9 223.2V11.6H5.8C2.6 11.6 0 9 0 5.8C0 2.6 2.6 0 5.8 0H24.7C27.9 0 30.5 2.6 30.5 5.8V223.1C30.5 226.4 27.9 229 24.7 229Z" fill="white"/>
<path d="M24.7001 88.8999H6.9001C3.7001 88.8999 1.1001 86.2999 1.1001 83.0999V48.6999C1.1001 45.4999 3.7001 42.8999 6.9001 42.8999H24.7001C27.9001 42.8999 30.5001 45.4999 30.5001 48.6999V83.0999C30.5001 86.2999 27.9001 88.8999 24.7001 88.8999ZM12.7001 77.2999H18.9001V54.4999H12.7001V77.2999Z" fill="white"/>
<path d="M24.1 192.3H6.3C3.1 192.3 0.5 189.7 0.5 186.5V104.3C0.5 101.1 3.1 98.5 6.3 98.5H24.1C27.3 98.5 29.9 101.1 29.9 104.3V186.5C29.9 189.7 27.3 192.3 24.1 192.3ZM12.1 180.7H18.3V110.1H12.1V180.7Z" fill="white"/>
<path d="M302.7 189.6C256.5 189.6 218.9 152 218.9 105.8C218.9 59.6 256.5 22 302.7 22C348.9 22 386.5 59.6 386.5 105.8C386.5 152 348.9 189.6 302.7 189.6ZM302.7 33.6C262.9 33.6 230.5 66 230.5 105.8C230.5 145.6 262.9 178 302.7 178C342.5 178 374.9 145.6 374.9 105.8C374.8 66 342.5 33.6 302.7 33.6Z" fill="white"/>
<path d="M302.7 88.4001C299.5 88.4001 296.9 85.8001 296.9 82.6001C296.9 62.6001 280.6 46.2001 260.5 46.2001C257.3 46.2001 254.7 43.6001 254.7 40.4001C254.7 37.2001 257.3 34.6001 260.5 34.6001C286.9 34.6001 308.5 56.1001 308.5 82.6001C308.5 85.8001 305.9 88.4001 302.7 88.4001Z" fill="white"/>
<path d="M317.6 93.7999C316.3 93.7999 315 93.3999 313.9 92.3999C311.4 90.2999 311.1 86.6999 313.2 84.1999C326.1 68.7999 324.1 45.8999 308.7 32.9999C306.2 30.8999 305.9 27.2999 308 24.7999C310.1 22.2999 313.7 21.9999 316.2 24.0999C336.5 41.0999 339.1 71.3999 322.1 91.6999C320.9 93.0999 319.3 93.7999 317.6 93.7999Z" fill="white"/>
<path d="M325.5 107.6C322.7 107.6 320.3 105.6 319.8 102.8C319.2 99.6 321.4 96.6 324.5 96.1C334.1 94.4 342.4 89.1 348 81.1C353.6 73.1 355.7 63.5 354 53.9C353.4 50.7 355.6 47.7 358.7 47.2C361.9 46.6 364.9 48.8 365.4 51.9C367.6 64.5 364.8 77.2 357.5 87.7C350.2 98.2 339.2 105.2 326.5 107.4C326.2 107.5 325.9 107.6 325.5 107.6Z" fill="white"/>
<path d="M343.8 128.9C335.5 128.9 327.3 126.7 319.9 122.5C317.1 120.9 316.2 117.4 317.8 114.6C319.4 111.8 322.9 110.9 325.7 112.5C334.1 117.4 343.9 118.6 353.3 116.1C362.7 113.6 370.5 107.6 375.4 99.1999C377 96.3999 380.5 95.4999 383.3 97.0999C386.1 98.6999 387 102.2 385.4 105C379 116.1 368.7 124 356.3 127.3C352.1 128.3 347.9 128.9 343.8 128.9Z" fill="white"/>
<path d="M350.2 161.2C343.3 161.2 336.4 159.7 330 156.7C318.4 151.3 309.6 141.7 305.2 129.6C304.1 126.6 305.7 123.3 308.7 122.2C311.7 121.1 315 122.7 316.1 125.7C319.4 134.8 326.1 142.1 334.9 146.2C343.7 150.3 353.6 150.7 362.7 147.4C365.7 146.3 369 147.9 370.1 150.9C371.2 153.9 369.6 157.2 366.6 158.3C361.3 160.2 355.7 161.2 350.2 161.2Z" fill="white"/>
<path d="M319.9 187.5C319.2 187.5 318.6 187.4 317.9 187.1C293 178.1 280.2 150.5 289.2 125.6C290.3 122.6 293.6 121 296.6 122.1C299.6 123.2 301.2 126.5 300.1 129.5C296.8 138.6 297.2 148.5 301.3 157.3C305.4 166.1 312.7 172.8 321.8 176.1C324.8 177.2 326.4 180.5 325.3 183.5C324.5 186 322.3 187.5 319.9 187.5Z" fill="white"/>
<path d="M267.1 180.8C265.1 180.8 263.1 179.8 262.1 177.9C255.7 166.8 254 153.9 257.3 141.5C260.6 129.1 268.6 118.8 279.6 112.4C282.4 110.8 285.9 111.8 287.5 114.5C289.1 117.3 288.2 120.8 285.4 122.4C277 127.3 271 135.1 268.5 144.5C266 153.9 267.3 163.7 272.1 172.1C273.7 174.9 272.8 178.4 270 180C269.1 180.5 268.1 180.8 267.1 180.8Z" fill="white"/>
<path d="M231 141.8C230.7 141.8 230.3 141.8 230 141.7C226.8 141.1 224.7 138.1 225.3 135C227.5 122.4 234.5 111.4 245 104C255.5 96.5999 268.2 93.7999 280.8 96.0999C284 96.6999 286.1 99.6999 285.5 102.8C284.9 106 281.9 108.1 278.8 107.5C269.2 105.8 259.6 108 251.6 113.5C243.6 119.1 238.3 127.4 236.6 137C236.2 139.8 233.7 141.8 231 141.8Z" fill="white"/>
<path d="M287.7 93.8C286 93.8 284.4 93.1 283.3 91.7C270.4 76.3 247.4 74.3 232.1 87.2C229.6 89.3 226 88.9 223.9 86.5C221.8 84 222.2 80.4 224.6 78.3C244.9 61.3 275.2 64 292.2 84.2C294.3 86.7 293.9 90.3 291.5 92.4C290.4 93.4 289.1 93.8 287.7 93.8Z" fill="white"/>
<path d="M302.7 134.8C286.7 134.8 273.7 121.8 273.7 105.8C273.7 89.8 286.7 76.8 302.7 76.8C318.7 76.8 331.7 89.8 331.7 105.8C331.7 121.8 318.7 134.8 302.7 134.8ZM302.7 88.4C293.1 88.4 285.3 96.2 285.3 105.8C285.3 115.4 293.1 123.2 302.7 123.2C312.3 123.2 320.1 115.4 320.1 105.8C320.1 96.2 312.3 88.4 302.7 88.4Z" fill="white"/>
<path d="M121.4 229H88.3C85.1 229 82.5 226.4 82.5 223.2V207C82.5 203.8 85.1 201.2 88.3 201.2C91.5 201.2 94.1 203.8 94.1 207V217.4H115.6V207C115.6 203.8 118.2 201.2 121.4 201.2C124.6 201.2 127.2 203.8 127.2 207V223.2C127.2 226.4 124.6 229 121.4 229Z" fill="white"/>
<path d="M283.5 229H139.2C136 229 133.4 226.4 133.4 223.2V207C133.4 203.8 136 201.2 139.2 201.2C142.4 201.2 145 203.8 145 207V217.4H277.7V207C277.7 203.8 280.3 201.2 283.5 201.2C286.7 201.2 289.3 203.8 289.3 207V223.2C289.3 226.4 286.7 229 283.5 229Z" fill="white"/>
<path d="M40.8999 32.4999H24.6999C21.4999 32.4999 18.8999 29.8999 18.8999 26.6999C18.8999 23.4999 21.4999 20.8999 24.6999 20.8999H40.8999C44.0999 20.8999 46.6999 23.4999 46.6999 26.6999C46.6999 29.8999 44.0999 32.4999 40.8999 32.4999Z" fill="white"/>
<path d="M40.9002 211.6H27.0002C23.8002 211.6 21.2002 209 21.2002 205.8C21.2002 202.6 23.8002 200 27.0002 200H40.9002C44.1002 200 46.7002 202.6 46.7002 205.8C46.7002 209 44.1002 211.6 40.9002 211.6Z" fill="white"/>
<path d="M402.1 211.6H42.6999C39.4999 211.6 36.8999 209 36.8999 205.8V5.8C36.8999 2.6 39.4999 0 42.6999 0H359.7C386.2 0 407.8 21.6 407.8 48.1V205.7C407.9 209 405.3 211.6 402.1 211.6ZM48.4999 200H396.2V48.1C396.2 28 379.8 11.6 359.7 11.6H48.4999V200Z" fill="white"/>
<path d="M190.5 124.3H80.3C77.1 124.3 74.5 121.7 74.5 118.5V93C74.5 89.8 77.1 87.2 80.3 87.2H190.5C193.7 87.2 196.3 89.8 196.3 93V118.5C196.3 121.7 193.7 124.3 190.5 124.3ZM86.1 112.7H184.7V98.8H86.1V112.7Z" fill="white"/>
<path d="M190.5 73.4999H80.3C77.1 73.4999 74.5 70.8999 74.5 67.6999C74.5 64.4999 77.1 61.8999 80.3 61.8999H190.5C193.7 61.8999 196.3 64.4999 196.3 67.6999C196.3 70.8999 193.7 73.4999 190.5 73.4999Z" fill="white"/>
<path d="M190.5 149.7H80.3C77.1 149.7 74.5 147.1 74.5 143.9C74.5 140.7 77.1 138.1 80.3 138.1H190.5C193.7 138.1 196.3 140.7 196.3 143.9C196.3 147.1 193.7 149.7 190.5 149.7Z" fill="white"/>
</svg>
